<?xml version="1.0" encoding="utf-8"?>
<!-- Generator: Adobe Illustrator 22.0.1, SVG Export Plug-In . SVG Version: 6.00 Build 0)  -->
<svg version="1.1" id="Layer_1" xmlns="http://www.w3.org/2000/svg" xmlns:xlink="http://www.w3.org/1999/xlink" x="0px" y="0px"
	 viewBox="0 0 299.2 168.5" style="enable-background:new 0 0 299.2 168.5;" xml:space="preserve">
<style type="text/css">
	.st0{fill:#999999;}
	.st1{fill:#CFFFFF;}
	.st2{fill:#FF92FF;}
</style>
<g id="Layer_x0020_1">
	<path class="st0" d="M24,10.4L24,10.4c0,0.1-0.1,0.2-0.1,0.2c0,0,0,0.1,0,0.1c-0.1,0.1-0.1,0.1-0.2,0.1s-0.1,0-0.2,0
		c-0.1,0-0.2,0-0.2-0.1c0-0.1-0.1-0.1-0.2,0c0-0.1,0-0.1,0-0.2c0-0.1,0-0.1,0-0.2c0-0.1,0-0.2,0.1-0.3c0.1-0.1,0.2-0.1,0.3-0.1
		c0.1,0,0.3,0,0.4,0.1C23.9,10.2,24,10.3,24,10.4L24,10.4z M22.2,9c0,0.1,0,0.1,0,0.2c0,0-0.1,0.1-0.1,0.1c-0.1,0-0.2,0.1-0.4,0.1
		c-0.1,0-0.2,0-0.2-0.1c-0.1,0-0.2-0.1-0.2-0.1V9c0-0.3,0.1-0.4,0.4-0.4c0,0,0.1,0,0.1,0c0.1,0,0.1,0,0.2,0c0,0.1,0.1,0.2,0.1,0.2
		C22.2,8.9,22.2,8.9,22.2,9z M25,12.9c-0.1,0.2-0.2,0.3-0.2,0.4c0,0.1-0.2,0.1-0.4,0.1c-0.1,0-0.1,0-0.2,0c0,0-0.1,0-0.2,0
		c0-0.1-0.1-0.1-0.1-0.2c0-0.1,0-0.1,0-0.2c0,0,0,0,0-0.1c0,0,0-0.1,0-0.1l0-0.1l0.1-0.1c0,0,0.1,0,0.1,0c0,0,0.1,0,0.1,0
		c0,0,0.1,0,0.1,0c0.1,0,0.1,0,0.2,0c0.1,0,0.1,0,0.2,0c0,0.1,0,0.1,0.1,0.2C24.9,12.7,25,12.8,25,12.9L25,12.9z M19.9,9.1
		c0,0.1,0,0.2,0,0.3c-0.1,0-0.1,0-0.2,0c0,0-0.1,0-0.2,0.1c-0.1,0-0.2-0.1-0.3-0.1c-0.1,0-0.2-0.1-0.3-0.1V9.1V9
		c0,0,0.1-0.1,0.1-0.1c0-0.1,0.1-0.1,0.1-0.1c0.1,0,0.2,0,0.2,0c0.1,0,0.1,0,0.1,0c0,0,0.1,0,0.1,0.1c0,0,0.1,0.1,0.2,0.1
		C19.9,9,19.9,9.1,19.9,9.1L19.9,9.1z M24.7,15.6c0,0.1,0,0.2-0.1,0.3C24.5,16,24.4,16,24.3,16c-0.1,0-0.2,0-0.2,0
		c-0.1,0-0.2,0-0.2-0.1c-0.1,0-0.1-0.1-0.2-0.2v-0.2c0-0.1,0-0.1,0-0.2c0-0.1,0-0.1,0-0.2c0.1,0,0.1-0.1,0.2-0.1
		c0.1,0,0.1-0.1,0.2-0.1c0.1,0,0.2,0,0.3,0.1c0.1,0.1,0.2,0.2,0.2,0.2V15.6L24.7,15.6z M17.8,10.1c0,0.1,0,0.2-0.1,0.3
		c-0.1,0.1-0.1,0.1-0.2,0.2c-0.1-0.1-0.2-0.1-0.3-0.1c-0.1,0-0.2-0.1-0.3-0.2v-0.1c0,0,0-0.1,0-0.1c0,0,0-0.1,0-0.1
		c0-0.2,0.1-0.3,0.2-0.3c0.1-0.1,0.2-0.1,0.4-0.1c0.1,0,0.1,0,0.2,0c0.1,0.1,0.1,0.1,0.2,0.2C17.7,9.9,17.8,10,17.8,10.1L17.8,10.1z
		 M23.5,18.1c0,0.1,0,0.2-0.1,0.3c-0.1,0.1-0.1,0.2-0.2,0.2H23c-0.1,0-0.2,0-0.3-0.1c0-0.1-0.1-0.2-0.1-0.2c0-0.1-0.1-0.1-0.1-0.2
		c0,0,0-0.1,0-0.1c0,0,0.1-0.1,0.1-0.2c0-0.1,0.1-0.1,0.2-0.1H23c0,0,0.1,0,0.1,0c0,0,0.1,0,0.1,0c0.1,0.1,0.1,0.1,0.2,0.2
		C23.5,17.9,23.5,18,23.5,18.1z M16,11.9c0,0.1-0.1,0.2-0.2,0.2c-0.1,0.1-0.2,0.1-0.3,0.1c0,0-0.1,0-0.1,0c0,0,0,0-0.1,0
		c-0.1-0.1-0.1-0.1-0.1-0.1s-0.1,0-0.2,0c0,0,0-0.1,0-0.2c0,0,0-0.1,0-0.1c0,0-0.1-0.1-0.1-0.1c0.1,0,0.1-0.1,0.2-0.1
		c0,0,0.1-0.1,0.2-0.1c0.1,0,0.2-0.1,0.3-0.1c0,0,0.1,0,0.2,0l0.2,0.2V11.9L16,11.9z M21.9,20.1c0,0.1,0,0.2-0.1,0.3
		c-0.1,0.1-0.1,0.2-0.2,0.2h-0.2c0,0-0.1,0-0.1,0c0,0-0.1,0-0.1,0c-0.1,0-0.2,0-0.2-0.1c0-0.1-0.1-0.1-0.2-0.2c0,0,0-0.1,0-0.2
		c0-0.1,0-0.1,0-0.2c0,0,0-0.1,0-0.2c0.1,0,0.2-0.1,0.2-0.1c0.1,0,0.2-0.1,0.3-0.1c0.1,0,0.2,0,0.3,0.1c0,0,0.1,0.1,0.1,0.2
		C21.9,20,21.9,20,21.9,20.1L21.9,20.1z M25.3,26c0,0-0.1,0.1-0.1,0.1c0,0-0.1,0.1-0.1,0.1c-0.1,0-0.2,0.1-0.3,0l-0.1,0
		c-0.1-0.1-0.1-0.1-0.1-0.1c0,0-0.1-0.1-0.2-0.1V26c0-0.2,0-0.3,0.1-0.4c0.1-0.1,0.2-0.2,0.4-0.2c0,0,0.1,0,0.2,0
		c0.1,0.1,0.2,0.2,0.2,0.3C25.2,25.8,25.3,25.9,25.3,26L25.3,26z M20.1,22.1c0,0.1-0.1,0.2-0.1,0.3c-0.1,0.1-0.2,0.1-0.3,0.1
		c-0.4,0-0.6-0.2-0.6-0.6c0-0.1,0-0.1,0.1-0.2c0.1,0,0.1-0.1,0.2-0.1c0.1,0,0.1-0.1,0.2-0.1c0.1,0,0.1,0,0.2,0c0,0,0.1,0,0.1-0.1
		c0.1,0.1,0.1,0.2,0.2,0.3C20,21.8,20,21.9,20.1,22.1L20.1,22.1z M23.1,25.9c-0.1,0.1-0.1,0.2-0.2,0.3c0,0-0.1,0.1-0.2,0.2
		c-0.1-0.1-0.3-0.1-0.4-0.2c-0.1-0.1-0.2-0.2-0.2-0.3c0-0.2,0.1-0.3,0.2-0.4c0.1-0.1,0.3-0.1,0.4-0.1c0.1,0,0.1,0,0.2,0
		c0.1,0,0.1,0,0.2,0v0.2c0,0,0,0.1,0,0.1C23.1,25.8,23.1,25.8,23.1,25.9z M20.8,25.7c0,0.1-0.1,0.2-0.2,0.4
		c-0.1,0.1-0.2,0.2-0.3,0.1c-0.1,0-0.2,0.1-0.3,0.1c-0.1,0-0.1,0-0.1-0.1c-0.1-0.1-0.2-0.2-0.2-0.3c0-0.1,0-0.2,0.1-0.3
		c0.1-0.1,0.1-0.2,0.2-0.3l0.4,0.1C20.5,25.6,20.6,25.7,20.8,25.7z M18.1,23.9c0,0.1,0,0.2-0.2,0.3c-0.1,0.1-0.2,0.1-0.4,0.1h-0.2
		c-0.1,0-0.1-0.1-0.2-0.1c0,0-0.1-0.1-0.1-0.2c0-0.1,0-0.2,0.1-0.3c0.1-0.1,0.1-0.2,0.2-0.3l0.1,0.1c0,0,0.1,0,0.1,0
		c0,0,0.1,0,0.1,0c0.1,0,0.1,0,0.2,0.1c0.1,0.1,0.1,0.1,0.2,0.2V23.9L18.1,23.9z M18.4,25.9c-0.1,0.1-0.1,0.1-0.2,0.2
		c-0.1,0.1-0.1,0.2-0.2,0.2c-0.2,0-0.3-0.1-0.3-0.1c0,0-0.1-0.1-0.3-0.2c0-0.1,0-0.2,0.1-0.3c0-0.1,0.1-0.2,0.2-0.3
		c0.1,0,0.1,0,0.2,0c0.1,0,0.1,0,0.2,0c0.1,0.1,0.2,0.2,0.2,0.2C18.3,25.7,18.4,25.8,18.4,25.9L18.4,25.9z M16,25.7
		c0,0.1,0,0.2,0,0.3c0,0.1-0.1,0.2-0.1,0.3c-0.2,0.1-0.3,0.1-0.4,0.1c-0.1,0-0.1,0-0.2-0.1c-0.1,0-0.1-0.1-0.2-0.1
		c0-0.1,0-0.2,0-0.3c0-0.1,0-0.2,0.1-0.3c0.1-0.1,0.2-0.2,0.3-0.2c0.1,0,0.1,0,0.2,0c0.1,0,0.1,0,0.2,0c0,0.1,0.1,0.1,0.1,0.1
		C15.9,25.6,16,25.6,16,25.7L16,25.7z M60.3,9.5c-0.1,0-0.2,0.1-0.2,0.1c0,0-0.1,0.1-0.2,0.1c0,0-0.1,0-0.1,0c0,0-0.1,0-0.1,0
		l-0.1,0c-0.1,0-0.2-0.1-0.3-0.2c0-0.1-0.1-0.2-0.1-0.3c0-0.1,0.1-0.1,0.1-0.2c0,0,0.1-0.1,0.2-0.2c0,0,0.1,0,0.2,0
		c0.1,0,0.1,0,0.2,0c0.1,0,0.1,0,0.2,0c0,0.1,0.1,0.2,0.1,0.3C60.2,9.3,60.3,9.4,60.3,9.5L60.3,9.5z M59.1,11.2
		c0,0.1-0.1,0.2-0.2,0.3c-0.1,0.1-0.2,0.1-0.4,0.1c-0.1,0-0.1,0-0.2,0c-0.1,0-0.1-0.1-0.2-0.1c0-0.1-0.1-0.1-0.1-0.2
		c0-0.1,0-0.1,0-0.1c0,0,0-0.1,0-0.1c0,0,0-0.1,0.1-0.1c0.1-0.1,0.1-0.2,0.2-0.3c0.2,0,0.4,0,0.6,0.1C59,10.9,59,11,59,11
		C59.1,11,59.1,11.1,59.1,11.2L59.1,11.2z M57.6,13.4c0,0.1-0.1,0.1-0.1,0.2c0,0.1-0.1,0.1-0.1,0.2c-0.1,0.1-0.3,0.2-0.3,0.2
		c-0.2,0-0.3,0-0.3-0.1c0-0.1-0.1-0.2-0.2-0.3v-0.1c0-0.1,0-0.2,0.1-0.2c0,0,0.1-0.1,0.1-0.1c0.1,0,0.1-0.1,0.1-0.1c0,0,0.1,0,0.1,0
		l0.1,0c0,0,0.1,0.1,0.1,0.1c0.1,0,0.1,0.1,0.1,0.1c0.1,0.1,0.1,0.1,0.1,0.2C57.4,13.4,57.5,13.4,57.6,13.4L57.6,13.4z M56.1,15.5
		c0,0.1,0,0.2,0,0.3c0,0.1-0.1,0.1-0.2,0.2h-0.2c-0.1,0-0.2,0-0.3-0.1c-0.1,0-0.1-0.1-0.2-0.1c0,0,0-0.1,0-0.2c0-0.1,0-0.1,0-0.2
		c0-0.1,0-0.1,0.1-0.2c0,0,0.1-0.1,0.1-0.2c0.1,0,0.1,0,0.2,0c0.1,0,0.1,0,0.2,0c0.1,0,0.2,0.1,0.3,0.1
		C56.1,15.3,56.1,15.4,56.1,15.5L56.1,15.5z M49.2,9.4c0,0,0,0.1,0,0.1c0,0,0,0.1,0,0.1c-0.1,0-0.2,0.1-0.2,0.1c-0.1,0-0.2,0-0.3,0
		h-0.3c0,0-0.1-0.1-0.1-0.2c0-0.1-0.1-0.1-0.1-0.1c0-0.1,0-0.2,0.1-0.3c0-0.1,0.1-0.2,0.2-0.3c0,0,0.1,0,0.1,0c0,0,0.1,0,0.1,0
		c0.1,0,0.2,0.1,0.4,0.2C49.1,9.1,49.2,9.2,49.2,9.4L49.2,9.4z M50.6,11.4c-0.1,0.1-0.1,0.2-0.2,0.4c0,0.1-0.1,0.2-0.3,0.2
		c-0.2,0-0.3-0.1-0.4-0.2c-0.1-0.1-0.1-0.2-0.1-0.4c0-0.1,0-0.2,0.1-0.2c0.1,0,0.1-0.1,0.2-0.1c0.1,0,0.1-0.1,0.2-0.1
		c0.1,0,0.1,0.1,0.2,0.1c0,0.1,0.1,0.1,0.2,0.1L50.6,11.4L50.6,11.4z M52,13.4c0,0.1,0,0.1,0,0.2c0,0,0,0.1-0.1,0.2c0,0,0,0.1,0,0.1
		c0,0,0,0.1,0,0.1C51.8,14,51.6,14,51.4,14c-0.1,0-0.2,0-0.3,0c-0.1,0-0.2-0.1-0.3-0.1v-0.2c0,0,0-0.1,0-0.2c0-0.1,0-0.1,0-0.1
		c0.1-0.1,0.1-0.1,0.2-0.2c0.1,0,0.1-0.1,0.1-0.2c0.2,0.1,0.3,0.1,0.3,0.1c0.1,0,0.2,0.1,0.3,0.2C51.9,13.4,51.9,13.4,52,13.4z
		 M53.3,15.7c0,0.1-0.1,0.2-0.2,0.3c-0.1,0.1-0.2,0.1-0.3,0.1c-0.1,0-0.1,0-0.2,0c0,0-0.1,0-0.2,0c-0.1-0.1-0.1-0.1-0.1-0.2
		c0-0.1-0.1-0.1-0.1-0.2c0-0.1,0.1-0.2,0.1-0.3c0-0.1,0.1-0.1,0.3-0.2c0.1,0,0.3,0,0.4,0.1C53.2,15.4,53.3,15.5,53.3,15.7L53.3,15.7
		z M54.8,17.6c0,0.1,0,0.2-0.1,0.3c-0.1,0-0.1,0.1-0.2,0.1c-0.1,0-0.1,0-0.2,0c-0.1,0-0.2-0.1-0.3-0.2c-0.1-0.1-0.2-0.2-0.2-0.3
		c0.1-0.1,0.1-0.2,0.2-0.3c0-0.1,0.1-0.2,0.2-0.3c0.1,0,0.1,0,0.2,0c0.1,0,0.2,0.1,0.3,0.2C54.7,17.3,54.8,17.5,54.8,17.6z
		 M56.2,19.5c0,0.1,0,0.1,0,0.2c0,0.1-0.1,0.1-0.1,0.2C55.9,20,55.8,20,55.7,20c-0.1,0-0.2,0-0.3-0.1c-0.1,0-0.1-0.1-0.2-0.2v-0.1
		c0-0.1,0-0.1,0-0.2c0-0.1-0.1-0.1-0.1-0.2c0.1,0,0.2-0.1,0.3-0.1c0.1,0,0.2-0.1,0.3-0.1c0.1,0,0.1,0,0.2,0.1
		c0.1,0.1,0.1,0.1,0.2,0.2C56.2,19.4,56.2,19.4,56.2,19.5L56.2,19.5z M57.7,21.7c-0.1,0.2-0.2,0.3-0.2,0.3c-0.1,0.1-0.2,0.1-0.4,0.1
		c-0.1,0-0.2,0-0.2,0c0,0-0.1-0.1-0.2-0.1c0-0.1,0-0.2-0.1-0.3c0-0.1,0.1-0.1,0.1-0.2c0-0.1,0.1-0.1,0.2-0.2H57c0.1,0,0.2,0,0.2,0
		c0.1,0,0.1,0,0.2,0.1c0.1,0,0.1,0.1,0.2,0.1c0,0.1,0,0.1,0.1,0.2C57.7,21.5,57.7,21.6,57.7,21.7L57.7,21.7z M59.2,23.7
		c0,0.1,0,0.2-0.1,0.3c-0.1,0.1-0.2,0.2-0.3,0.2c-0.1,0-0.2,0-0.3-0.1c-0.1-0.1-0.2-0.1-0.2-0.2c0,0,0-0.1,0-0.1c0,0,0-0.1,0-0.1
		v-0.1c0.2-0.2,0.3-0.2,0.5-0.2c0,0,0.1,0,0.1,0c0,0,0.1,0,0.1,0c0,0,0.1,0.1,0.1,0.1c0,0,0.1,0.1,0.1,0.1L59.2,23.7L59.2,23.7z
		 M60.7,25.8c0,0.1-0.1,0.1-0.1,0.2c0,0.1-0.1,0.1-0.1,0.2c-0.1,0-0.1,0-0.2,0c-0.1,0-0.1,0-0.2,0c-0.1-0.1-0.2-0.1-0.3-0.2
		c-0.1-0.1-0.1-0.2-0.1-0.3c0-0.1,0-0.2,0.1-0.3l0.5-0.2C60.4,25.3,60.6,25.5,60.7,25.8L60.7,25.8z M53.4,19.5
		c-0.1,0.1-0.1,0.1-0.1,0.1c0,0,0,0.1-0.1,0.2c-0.1,0.1-0.2,0.1-0.3,0.1c-0.2,0-0.4-0.1-0.6-0.3v-0.2c0-0.1,0-0.2,0-0.3
		c0.1,0,0.2-0.1,0.2-0.1c0-0.1,0.1-0.1,0.3-0.1c0.2,0,0.3,0.1,0.5,0.2v0.1c0,0.1,0.1,0.1,0.1,0.1C53.4,19.4,53.4,19.5,53.4,19.5
		L53.4,19.5z M51.9,21.7c-0.1,0.1-0.2,0.1-0.3,0.2C51.5,22,51.4,22,51.3,22c0,0-0.1,0-0.1,0c0,0-0.1,0-0.1,0c0-0.1-0.1-0.1-0.1-0.2
		c0,0-0.1,0-0.1,0c0,0-0.1,0-0.1,0c0.1-0.1,0.1-0.1,0.1-0.2c0,0,0-0.1,0.1-0.1c0,0,0-0.1,0-0.1c0,0,0-0.1,0-0.2
		c0.1,0,0.2-0.1,0.2-0.1c0.1,0,0.2-0.1,0.3-0.1c0.1,0,0.2,0.1,0.2,0.1c0.1,0.1,0.1,0.1,0.2,0.2v0.1c0,0,0,0.1,0,0.1
		C51.9,21.6,51.9,21.7,51.9,21.7L51.9,21.7z M50.4,23.5c0,0.1,0,0.1-0.1,0.1s0,0.1,0,0.1C50.2,23.9,50,24,49.9,24
		c-0.1,0-0.2-0.1-0.3-0.1c-0.1,0-0.2-0.1-0.3-0.2v-0.2c0-0.4,0.2-0.5,0.5-0.5c0.1,0,0.2,0,0.3,0c0,0.1,0.1,0.2,0.1,0.2
		C50.4,23.3,50.4,23.4,50.4,23.5L50.4,23.5z M48.9,25.9c-0.1,0.1-0.1,0.2-0.2,0.3c-0.1,0.1-0.2,0.2-0.3,0.2c-0.1,0-0.1,0-0.2,0
		c-0.1,0-0.1,0-0.2,0c0-0.1-0.1-0.2-0.1-0.2c0-0.1-0.1-0.2-0.1-0.2c0-0.1,0-0.1,0-0.2c0-0.1,0-0.1,0-0.2c0.1,0,0.1,0,0.2-0.1
		c0.1,0,0.1,0,0.2,0c0.1,0,0.1,0,0.2,0.1c0.1,0,0.1,0.1,0.2,0.1c0,0.1,0.1,0.1,0.1,0.2C48.8,25.7,48.9,25.8,48.9,25.9L48.9,25.9z"/>
	<path class="st0" d="M92.2,10.4L92.2,10.4c0,0.1-0.1,0.2-0.1,0.2c0,0,0,0.1,0,0.1c-0.1,0.1-0.1,0.1-0.2,0.1c-0.1,0-0.1,0-0.2,0
		c-0.1,0-0.2,0-0.2-0.1c0-0.1-0.1-0.1-0.2,0c0-0.1,0-0.1,0-0.2c0-0.1,0-0.1,0-0.2c0-0.1,0-0.2,0.1-0.3c0.1-0.1,0.2-0.1,0.3-0.1
		c0.1,0,0.3,0,0.4,0.1C92.2,10.2,92.2,10.3,92.2,10.4L92.2,10.4z M90.5,9c0,0.1,0,0.1,0,0.2c0,0-0.1,0.1-0.1,0.1
		c-0.1,0-0.2,0.1-0.4,0.1c-0.1,0-0.2,0-0.2-0.1c-0.1,0-0.2-0.1-0.2-0.1V9c0-0.3,0.1-0.4,0.4-0.4c0,0,0.1,0,0.1,0c0.1,0,0.1,0,0.2,0
		c0,0.1,0.1,0.2,0.1,0.2C90.5,8.9,90.5,8.9,90.5,9z M93.2,12.9c-0.1,0.2-0.2,0.3-0.2,0.4c0,0.1-0.2,0.1-0.4,0.1c-0.1,0-0.1,0-0.2,0
		c0,0-0.1,0-0.2,0c0-0.1-0.1-0.1-0.1-0.2c0-0.1,0-0.1,0-0.2c0,0,0,0,0-0.1c0,0,0-0.1,0-0.1l0-0.1l0.1-0.1c0,0,0.1,0,0.1,0
		c0,0,0.1,0,0.1,0c0,0,0.1,0,0.1,0c0.1,0,0.1,0,0.2,0c0.1,0,0.1,0,0.2,0c0,0.1,0,0.1,0.1,0.2C93.2,12.7,93.2,12.8,93.2,12.9
		L93.2,12.9z M88.2,9.1c0,0.1,0,0.2,0,0.3c-0.1,0-0.2,0-0.2,0c0,0-0.1,0-0.2,0.1c-0.1,0-0.2-0.1-0.3-0.1c-0.1,0-0.2-0.1-0.3-0.1V9.1
		V9c0,0,0.1-0.1,0.1-0.1c0-0.1,0.1-0.1,0.1-0.1c0.1,0,0.2,0,0.2,0c0.1,0,0.1,0,0.1,0c0,0,0.1,0,0.1,0.1c0,0,0.1,0.1,0.2,0.1
		C88.2,9,88.2,9.1,88.2,9.1L88.2,9.1z M92.9,15.6c0,0.1,0,0.2-0.1,0.3C92.8,16,92.7,16,92.6,16c-0.1,0-0.2,0-0.2,0
		c-0.1,0-0.2,0-0.2-0.1c-0.1,0-0.1-0.1-0.2-0.2v-0.2c0-0.1,0-0.1,0-0.2c0-0.1,0-0.1,0-0.2c0.1,0,0.1-0.1,0.2-0.1
		c0.1,0,0.1-0.1,0.2-0.1c0.1,0,0.2,0,0.3,0.1c0.1,0.1,0.2,0.2,0.2,0.2L92.9,15.6L92.9,15.6z M86,10.1c0,0.1,0,0.2-0.1,0.3
		c-0.1,0.1-0.1,0.1-0.2,0.2c-0.1-0.1-0.2-0.1-0.3-0.1c-0.1,0-0.2-0.1-0.3-0.2v-0.1c0,0,0-0.1,0-0.1c0,0,0-0.1,0-0.1
		c0-0.2,0.1-0.3,0.2-0.3c0.1-0.1,0.2-0.1,0.4-0.1c0.1,0,0.1,0,0.2,0c0.1,0.1,0.1,0.1,0.2,0.2C86,9.9,86,10,86,10.1L86,10.1z
		 M91.8,18.1c0,0.1,0,0.2-0.1,0.3c-0.1,0.1-0.1,0.2-0.2,0.2h-0.2c-0.1,0-0.2,0-0.3-0.1c0-0.1-0.1-0.2-0.1-0.2c0-0.1-0.1-0.1-0.1-0.2
		c0,0,0-0.1,0-0.1c0,0,0.1-0.1,0.1-0.2c0-0.1,0.1-0.1,0.2-0.1h0.2c0,0,0.1,0,0.1,0c0,0,0.1,0,0.1,0c0.1,0.1,0.1,0.1,0.2,0.2
		C91.7,17.9,91.8,18,91.8,18.1L91.8,18.1z M84.3,11.9c0,0.1-0.1,0.2-0.2,0.2c-0.1,0.1-0.2,0.1-0.3,0.1c0,0-0.1,0-0.1,0
		c0,0,0,0-0.1,0c-0.1-0.1-0.1-0.1-0.1-0.1c0,0-0.1,0-0.2,0c0,0,0-0.1,0-0.2c0,0,0-0.1,0-0.1c0,0-0.1-0.1-0.1-0.1
		c0.1,0,0.1-0.1,0.2-0.1c0,0,0.1-0.1,0.2-0.1c0.1,0,0.2-0.1,0.3-0.1c0,0,0.1,0,0.2,0l0.2,0.2V11.9L84.3,11.9z M90.2,20.1
		c0,0.1,0,0.2-0.1,0.3C90,20.4,90,20.5,90,20.6h-0.2c0,0-0.1,0-0.1,0c0,0-0.1,0-0.1,0c-0.1,0-0.2,0-0.2-0.1c0-0.1-0.1-0.1-0.2-0.2
		c0,0,0-0.1,0-0.2c0-0.1,0-0.1,0-0.2c0,0,0-0.1,0-0.2c0.1,0,0.2-0.1,0.2-0.1c0.1,0,0.2-0.1,0.3-0.1c0.1,0,0.2,0,0.3,0.1
		c0,0,0.1,0.1,0.2,0.2C90.2,20,90.2,20,90.2,20.1L90.2,20.1z M93.5,26c0,0-0.1,0.1-0.1,0.1c0,0-0.1,0.1-0.1,0.1
		c-0.1,0-0.2,0.1-0.3,0l-0.1,0c-0.1-0.1-0.1-0.1-0.1-0.1c0,0-0.1-0.1-0.2-0.1V26c0-0.2,0-0.3,0.1-0.4c0.1-0.1,0.2-0.2,0.4-0.2
		c0,0,0.1,0,0.2,0c0.1,0.1,0.2,0.2,0.2,0.3C93.5,25.8,93.5,25.9,93.5,26L93.5,26z M88.3,22.1c0,0.1-0.1,0.2-0.1,0.3
		c-0.1,0.1-0.2,0.1-0.3,0.1c-0.4,0-0.6-0.2-0.6-0.6c0-0.1,0-0.1,0.1-0.2c0.1,0,0.1-0.1,0.2-0.1c0.1,0,0.1-0.1,0.2-0.1
		c0.1,0,0.1,0,0.2,0c0,0,0.1,0,0.1-0.1c0.1,0.1,0.1,0.2,0.2,0.3C88.2,21.8,88.3,21.9,88.3,22.1L88.3,22.1z M91.3,25.9
		c-0.1,0.1-0.1,0.2-0.2,0.3c0,0-0.1,0.1-0.2,0.2c-0.1-0.1-0.3-0.1-0.4-0.2c-0.1-0.1-0.2-0.2-0.2-0.3c0-0.2,0.1-0.3,0.2-0.4
		c0.1-0.1,0.3-0.1,0.4-0.1c0.1,0,0.1,0,0.2,0c0.1,0,0.1,0,0.2,0v0.2c0,0,0,0.1,0,0.1C91.3,25.8,91.3,25.8,91.3,25.9z M89.1,25.7
		c0,0.1-0.1,0.2-0.2,0.4c-0.1,0.1-0.2,0.2-0.3,0.1c-0.1,0-0.2,0.1-0.3,0.1c-0.1,0-0.1,0-0.1-0.1C88.1,26.1,88,26,88,25.9
		c0-0.1,0-0.2,0.1-0.3c0.1-0.1,0.1-0.2,0.2-0.3l0.4,0.1C88.8,25.6,88.9,25.7,89.1,25.7z M86.4,23.9c0,0.1,0,0.2-0.2,0.3
		c-0.1,0.1-0.2,0.1-0.4,0.1h-0.2c-0.1,0-0.1-0.1-0.2-0.1c0,0-0.1-0.1-0.1-0.2c0-0.1,0-0.2,0.1-0.3c0.1-0.1,0.1-0.2,0.2-0.3l0.1,0.1
		c0,0,0.1,0,0.1,0c0,0,0.1,0,0.1,0c0.1,0,0.1,0,0.2,0.1c0.1,0.1,0.1,0.1,0.2,0.2V23.9L86.4,23.9z M86.6,25.9
		c-0.1,0.1-0.1,0.1-0.2,0.2c-0.1,0.1-0.1,0.2-0.2,0.2c-0.2,0-0.3-0.1-0.3-0.1c0,0-0.1-0.1-0.3-0.2c0-0.1,0-0.2,0.1-0.3
		c0-0.1,0.1-0.2,0.2-0.3c0.1,0,0.1,0,0.2,0c0.1,0,0.1,0,0.2,0c0.1,0.1,0.2,0.2,0.2,0.2C86.6,25.7,86.6,25.8,86.6,25.9L86.6,25.9z
		 M84.3,25.7c0,0.1,0,0.2,0,0.3c0,0.1-0.1,0.2-0.1,0.3c-0.2,0.1-0.3,0.1-0.4,0.1c-0.1,0-0.1,0-0.2-0.1c-0.1,0-0.1-0.1-0.2-0.1
		c0-0.1,0-0.2,0-0.3c0-0.1,0-0.2,0.1-0.3c0.1-0.1,0.2-0.2,0.3-0.2c0.1,0,0.1,0,0.2,0c0.1,0,0.1,0,0.2,0c0,0.1,0.1,0.1,0.1,0.1
		C84.2,25.6,84.3,25.6,84.3,25.7L84.3,25.7z M124.6,16.2c0,0.1,0,0.1,0,0.2c0,0.1-0.1,0.1-0.1,0.2c-0.1,0-0.1,0.1-0.2,0.1
		c0,0-0.1,0.1-0.2,0.1c-0.1,0-0.3-0.1-0.4-0.1c-0.1,0-0.2-0.2-0.2-0.3c0-0.1,0-0.1,0-0.1c0,0,0-0.1,0-0.2c0.1-0.1,0.2-0.1,0.2-0.2
		c0.1,0,0.2-0.1,0.3-0.1c0.1,0,0.2,0,0.2,0c0.1,0,0.2,0,0.2,0c0,0.1,0,0.1,0,0.2C124.6,16,124.6,16.1,124.6,16.2L124.6,16.2z
		 M122.8,16.2c0,0.2-0.1,0.3-0.2,0.4c-0.1,0.1-0.3,0.2-0.4,0.2c0,0-0.1-0.1-0.1-0.1c0,0-0.1,0-0.1,0l-0.3-0.3c0-0.1,0.1-0.1,0.1-0.2
		c0-0.1,0.1-0.1,0.1-0.2c0.2-0.1,0.3-0.1,0.5-0.1h0.2c0,0.1,0.1,0.1,0.1,0.2C122.8,16.1,122.8,16.1,122.8,16.2L122.8,16.2z
		 M121.2,16.2c0,0.1-0.1,0.2-0.2,0.4c-0.1,0.1-0.2,0.2-0.4,0.2c-0.1,0-0.1,0-0.2-0.1c0,0-0.1-0.1-0.2-0.1l-0.2-0.4
		c0-0.1,0.1-0.2,0.1-0.3c0.1,0,0.1-0.1,0.2-0.1c0.1,0,0.2,0,0.2-0.1c0.1,0.1,0.2,0.1,0.3,0.2C121,16.1,121,16.1,121.2,16.2
		L121.2,16.2z M124.5,20.5c-0.1,0-0.1,0.1-0.2,0.1c0,0-0.1,0.1-0.2,0.1c-0.1,0-0.3-0.1-0.4-0.1c-0.1,0-0.2-0.1-0.2-0.3
		c0-0.1,0-0.1,0-0.1c0,0,0-0.1,0-0.2c0.1-0.1,0.2-0.1,0.2-0.2c0.1,0,0.2-0.1,0.3-0.1c0.1,0,0.1,0,0.1,0c0.2,0,0.3,0,0.3,0.1
		c0,0.1,0.1,0.1,0.1,0.2c0,0,0,0.1,0,0.2C124.6,20.4,124.5,20.4,124.5,20.5L124.5,20.5z M119.4,16.2c0,0.2-0.1,0.3-0.2,0.4
		c-0.1,0.1-0.3,0.1-0.5,0.1c-0.1,0-0.2,0-0.3-0.1c-0.1-0.1-0.1-0.2-0.1-0.3c0-0.1,0.1-0.3,0.1-0.4c0.1-0.1,0.2-0.2,0.3-0.2
		c0.1,0,0.2,0,0.2,0c0.1,0,0.2,0.1,0.2,0.1c0,0.1,0.1,0.1,0.1,0.2C119.4,16.1,119.4,16.2,119.4,16.2L119.4,16.2z M122.8,20.1
		c0,0.1-0.1,0.3-0.2,0.4c-0.1,0.1-0.2,0.2-0.4,0.2c-0.1,0-0.1,0-0.2,0c0,0-0.1,0-0.2,0l-0.3-0.3c0-0.1,0.1-0.1,0.1-0.2
		c0-0.1,0.1-0.1,0.1-0.2c0.2-0.1,0.3-0.1,0.5-0.1h0.2c0,0.1,0.1,0.1,0.2,0.2C122.8,19.9,122.8,20,122.8,20.1L122.8,20.1z
		 M117.6,16.2c0,0.1,0,0.2,0,0.2c0,0-0.1,0.1-0.1,0.2c-0.1,0-0.1,0.1-0.1,0.1c0,0-0.1,0.1-0.2,0.1c-0.1,0-0.3-0.1-0.4-0.1
		c-0.1-0.1-0.2-0.2-0.2-0.3c0-0.1,0-0.1,0-0.2c0,0,0-0.1,0-0.2c0.2-0.2,0.3-0.2,0.5-0.2c0.1,0,0.2,0,0.2,0c0.1,0,0.2,0,0.2,0
		c0,0.1,0,0.1,0,0.2C117.6,16.1,117.6,16.1,117.6,16.2z M121.2,20.1c0,0.1-0.1,0.2-0.1,0.2s-0.1,0.1-0.1,0.1c0,0-0.1,0-0.1,0
		c0,0-0.1,0.1-0.1,0.1c-0.1,0-0.1,0-0.2,0c-0.1,0-0.1,0-0.2-0.1c-0.1,0-0.1-0.1-0.2-0.1l-0.2-0.4c0-0.1,0.1-0.2,0.1-0.3
		c0-0.1,0-0.1,0.1-0.1c0.1,0,0.2,0,0.2,0c0,0,0.1,0,0.1-0.1c0.1,0.1,0.2,0.1,0.3,0.2C121,20,121,20,121.2,20.1L121.2,20.1z
		 M119.4,20.1c0,0.1,0,0.2-0.1,0.2c0,0.1-0.1,0.1-0.2,0.2c-0.1,0-0.1,0.1-0.2,0.1c-0.1,0-0.1,0-0.2,0c-0.1,0-0.2,0-0.3-0.1
		c-0.1-0.1-0.2-0.2-0.2-0.3c0-0.1,0-0.2,0-0.2c0,0,0.1-0.1,0.1-0.2c0,0,0.1-0.1,0.1-0.1c0.1,0,0.1-0.1,0.2-0.1c0.1,0,0.2,0,0.2,0
		c0.1,0,0.2,0.1,0.2,0.1c0,0.1,0.1,0.1,0.1,0.2C119.4,20,119.4,20,119.4,20.1L119.4,20.1z M117.7,20c0,0.1,0,0.2-0.1,0.2
		c0,0.1-0.1,0.1-0.1,0.2c-0.1,0-0.1,0.1-0.2,0.1c0,0-0.1,0.1-0.2,0.1c-0.1,0-0.2-0.1-0.4-0.1c-0.2-0.1-0.2-0.2-0.2-0.3
		c0-0.1,0-0.1,0-0.2c0,0,0-0.1,0-0.2c0.1-0.2,0.3-0.2,0.5-0.2c0.1,0,0.1,0,0.1,0c0.1,0,0.1,0,0.2,0.1c0,0.1,0.1,0.1,0.1,0
		c0,0,0,0.1,0.1,0.1C117.6,20,117.7,20,117.7,20L117.7,20z M24,43.7L24,43.7c0,0.1-0.1,0.2-0.1,0.2c0,0,0,0.1,0,0.1
		c-0.1,0.1-0.1,0.1-0.2,0.1s-0.1,0-0.2,0c-0.1,0-0.2,0-0.2-0.1c0-0.1-0.1-0.1-0.2,0c0-0.1,0-0.1,0-0.2c0-0.1,0-0.1,0-0.2
		c0-0.1,0-0.2,0.1-0.3c0.1-0.1,0.2-0.1,0.3-0.1c0.1,0,0.3,0,0.4,0.1C23.9,43.4,24,43.5,24,43.7L24,43.7z M22.2,42.3
		c0,0.1,0,0.1,0,0.2c0,0-0.1,0.1-0.1,0.1c-0.1,0-0.2,0.1-0.4,0.1c-0.1,0-0.2,0-0.2-0.1c-0.1,0-0.2-0.1-0.2-0.1v-0.3
		c0-0.3,0.1-0.4,0.4-0.4c0,0,0.1,0,0.1,0c0.1,0,0.1,0,0.2,0c0,0.1,0.1,0.2,0.1,0.2C22.2,42.1,22.2,42.2,22.2,42.3z M25,46.1
		c-0.1,0.2-0.2,0.3-0.2,0.4c0,0.1-0.2,0.1-0.4,0.1c-0.1,0-0.1,0-0.2,0c0,0-0.1,0-0.2,0c0-0.1-0.1-0.1-0.1-0.2c0-0.1,0-0.1,0-0.2
		c0,0,0,0,0-0.1s0-0.1,0-0.1l0-0.1l0.1-0.1c0,0,0.1,0,0.1,0c0,0,0.1,0,0.1,0c0,0,0.1,0,0.1,0c0.1,0,0.1,0,0.2,0c0.1,0,0.1,0,0.2,0
		c0,0.1,0,0.1,0.1,0.2C24.9,46,25,46,25,46.1L25,46.1z M19.9,42.4c0,0.1,0,0.2,0,0.3c-0.1,0-0.1,0-0.2,0c0,0-0.1,0-0.2,0.1
		c-0.1,0-0.2-0.1-0.3-0.1c-0.1,0-0.2-0.1-0.3-0.1v-0.3v-0.1c0,0,0.1-0.1,0.1-0.1c0-0.1,0.1-0.1,0.1-0.1c0.1,0,0.2,0,0.2,0
		c0.1,0,0.1,0,0.1,0c0,0,0.1,0,0.1,0.1c0,0,0.1,0.1,0.2,0.1C19.9,42.2,19.9,42.3,19.9,42.4L19.9,42.4z M24.7,48.9
		c0,0.1,0,0.2-0.1,0.3c-0.1,0.1-0.1,0.1-0.3,0.1c-0.1,0-0.2,0-0.2,0c-0.1,0-0.2,0-0.2-0.1c-0.1,0-0.1-0.1-0.2-0.2v-0.2
		c0-0.1,0-0.1,0-0.2c0-0.1,0-0.1,0-0.2c0.1,0,0.1-0.1,0.2-0.1c0.1,0,0.1-0.1,0.2-0.1c0.1,0,0.2,0,0.3,0.1c0.1,0.1,0.2,0.2,0.2,0.2
		V48.9L24.7,48.9z M17.8,43.3c0,0.1,0,0.2-0.1,0.3c-0.1,0.1-0.1,0.1-0.2,0.2c-0.1-0.1-0.2-0.1-0.3-0.1c-0.1,0-0.2-0.1-0.3-0.2v-0.1
		c0,0,0-0.1,0-0.1c0,0,0-0.1,0-0.1c0-0.2,0.1-0.3,0.2-0.3c0.1-0.1,0.2-0.1,0.4-0.1c0.1,0,0.1,0,0.2,0c0.1,0.1,0.1,0.2,0.2,0.2
		C17.7,43.2,17.8,43.2,17.8,43.3L17.8,43.3z M23.5,51.3c0,0.1,0,0.2-0.1,0.3c-0.1,0.1-0.1,0.2-0.2,0.2H23c-0.1,0-0.2,0-0.3-0.1
		c0-0.1-0.1-0.2-0.1-0.2c0-0.1-0.1-0.1-0.1-0.2c0,0,0-0.1,0-0.1c0,0,0.1-0.1,0.1-0.2c0-0.1,0.1-0.1,0.2-0.1H23c0,0,0.1,0,0.1,0
		c0,0,0.1,0,0.1,0c0.1,0.1,0.1,0.1,0.2,0.2C23.5,51.2,23.5,51.2,23.5,51.3z M16,45.1c0,0.1-0.1,0.2-0.2,0.2
		c-0.1,0.1-0.2,0.1-0.3,0.1c0,0-0.1,0-0.1,0c0,0,0,0-0.1,0c-0.1-0.1-0.1-0.1-0.1-0.1c0,0-0.1,0-0.2,0c0,0,0-0.1,0-0.2
		c0,0,0-0.1,0-0.1c0,0-0.1-0.1-0.1-0.1c0.1,0,0.1-0.1,0.2-0.1c0,0,0.1-0.1,0.2-0.1c0.1,0,0.2-0.1,0.3-0.1c0,0,0.1,0,0.2,0l0.2,0.2
		V45.1L16,45.1z M21.9,53.3c0,0.1,0,0.2-0.1,0.3c-0.1,0.1-0.1,0.2-0.2,0.2h-0.2c0,0-0.1,0-0.1,0c0,0-0.1,0-0.1,0
		c-0.1,0-0.2,0-0.2-0.1c0-0.1-0.1-0.1-0.2-0.2c0,0,0-0.1,0-0.2c0-0.1,0-0.1,0-0.2c0,0,0-0.1,0-0.2c0.1,0,0.2-0.1,0.2-0.1
		c0.1,0,0.2-0.1,0.3-0.1c0.1,0,0.2,0,0.3,0.1c0,0,0.1,0.1,0.1,0.2C21.9,53.2,21.9,53.3,21.9,53.3L21.9,53.3z M25.3,59.3
		c0,0-0.1,0.1-0.1,0.1c0,0-0.1,0.1-0.1,0.1c-0.1,0-0.2,0.1-0.3,0l-0.1,0c-0.1-0.1-0.1-0.1-0.1-0.1c0,0-0.1-0.1-0.2-0.1v-0.2
		c0-0.2,0-0.3,0.1-0.4c0.1-0.1,0.2-0.2,0.4-0.2c0,0,0.1,0,0.2,0c0.1,0.1,0.2,0.2,0.2,0.3C25.2,59,25.3,59.1,25.3,59.3L25.3,59.3z
		 M20.1,55.3c0,0.1-0.1,0.2-0.1,0.3c-0.1,0.1-0.2,0.1-0.3,0.1c-0.4,0-0.6-0.2-0.6-0.6c0-0.1,0-0.1,0.1-0.2c0.1,0,0.1-0.1,0.2-0.1
		c0.1,0,0.1-0.1,0.2-0.1c0.1,0,0.1,0,0.2,0c0,0,0.1,0,0.1-0.1c0.1,0.1,0.1,0.2,0.2,0.3C20,55.1,20,55.2,20.1,55.3L20.1,55.3z
		 M23.1,59.1c-0.1,0.1-0.1,0.2-0.2,0.3c0,0-0.1,0.1-0.2,0.2c-0.1-0.1-0.3-0.1-0.4-0.2c-0.1-0.1-0.2-0.2-0.2-0.3
		c0-0.2,0.1-0.3,0.2-0.4c0.1-0.1,0.3-0.1,0.4-0.1c0.1,0,0.1,0,0.2,0c0.1,0,0.1,0,0.2,0v0.2c0,0,0,0.1,0,0.1
		C23.1,59,23.1,59.1,23.1,59.1z M20.8,59c0,0.1-0.1,0.2-0.2,0.4c-0.1,0.1-0.2,0.2-0.3,0.1c-0.1,0-0.2,0.1-0.3,0.1
		c-0.1,0-0.1,0-0.1-0.1c-0.1-0.1-0.2-0.2-0.2-0.3c0-0.1,0-0.2,0.1-0.3c0.1-0.1,0.1-0.2,0.2-0.3l0.4,0.1C20.5,58.9,20.6,59,20.8,59z
		 M18.1,57.1c0,0.1,0,0.2-0.2,0.3c-0.1,0.1-0.2,0.1-0.4,0.1h-0.2c-0.1,0-0.1-0.1-0.2-0.1c0,0-0.1-0.1-0.1-0.2c0-0.1,0-0.2,0.1-0.3
		c0.1-0.1,0.1-0.2,0.2-0.3l0.1,0.1c0,0,0.1,0,0.1,0c0,0,0.1,0,0.1,0c0.1,0,0.1,0,0.2,0.1c0.1,0.1,0.1,0.1,0.2,0.2V57.1L18.1,57.1z
		 M18.4,59.2c-0.1,0.1-0.1,0.1-0.2,0.2c-0.1,0.1-0.1,0.2-0.2,0.2c-0.2,0-0.3-0.1-0.3-0.1c0,0-0.1-0.1-0.3-0.2c0-0.1,0-0.2,0.1-0.3
		c0-0.1,0.1-0.2,0.2-0.3c0.1,0,0.1,0,0.2,0c0.1,0,0.1,0,0.2,0c0.1,0.1,0.2,0.2,0.2,0.2C18.3,58.9,18.4,59,18.4,59.2L18.4,59.2z
		 M16,58.9c0,0.1,0,0.2,0,0.3c0,0.1-0.1,0.2-0.1,0.3c-0.2,0.1-0.3,0.1-0.4,0.1c-0.1,0-0.1,0-0.2-0.1c-0.1,0-0.1-0.1-0.2-0.1
		c0-0.1,0-0.2,0-0.3c0-0.1,0-0.2,0.1-0.3c0.1-0.1,0.2-0.2,0.3-0.2c0.1,0,0.1,0,0.2,0c0.1,0,0.1,0,0.2,0c0,0.1,0.1,0.1,0.1,0.1
		C15.9,58.8,16,58.9,16,58.9L16,58.9z"/>
	<path class="st0" d="M60.3,42.8c-0.1,0-0.2,0.1-0.2,0.1c0,0-0.1,0.1-0.2,0.1c0,0-0.1,0-0.1,0c0,0-0.1,0-0.1,0l-0.1,0
		c-0.1,0-0.2-0.1-0.3-0.2c0-0.1-0.1-0.2-0.1-0.3c0-0.1,0.1-0.1,0.1-0.2c0,0,0.1-0.1,0.2-0.2c0,0,0.1,0,0.2,0c0.1,0,0.1,0,0.2,0
		c0.1,0,0.1,0,0.2,0c0,0.1,0.1,0.2,0.1,0.3C60.2,42.6,60.3,42.7,60.3,42.8L60.3,42.8z M59.1,44.5c0,0.1-0.1,0.2-0.2,0.3
		c-0.1,0.1-0.2,0.1-0.4,0.1c-0.1,0-0.1,0-0.2,0c-0.1,0-0.1-0.1-0.2-0.1c0-0.1-0.1-0.1-0.1-0.2c0-0.1,0-0.1,0-0.1c0,0,0-0.1,0-0.1
		c0,0,0-0.1,0.1-0.1c0.1-0.1,0.1-0.2,0.2-0.3c0.2,0,0.4,0,0.6,0.1c0,0.1,0.1,0.2,0.1,0.2C59.1,44.3,59.1,44.4,59.1,44.5L59.1,44.5z
		 M57.6,46.7c0,0.1-0.1,0.1-0.1,0.2c0,0.1-0.1,0.1-0.1,0.2c-0.1,0.1-0.3,0.2-0.3,0.2c-0.2,0-0.3,0-0.3-0.1c0-0.1-0.1-0.2-0.2-0.3
		v-0.1c0-0.1,0-0.2,0.1-0.2c0,0,0.1-0.1,0.1-0.1c0.1,0,0.1-0.1,0.1-0.1c0,0,0.1,0,0.1,0l0.1,0c0,0,0.1,0.1,0.1,0.1
		c0.1,0,0.1,0.1,0.1,0.1c0.1,0.1,0.1,0.1,0.1,0.2C57.4,46.6,57.5,46.6,57.6,46.7L57.6,46.7z M56.1,48.8c0,0.1,0,0.2,0,0.3
		c0,0.1-0.1,0.1-0.2,0.2h-0.2c-0.1,0-0.2,0-0.3-0.1s-0.1-0.1-0.2-0.1c0,0,0-0.1,0-0.2c0-0.1,0-0.1,0-0.2c0-0.1,0-0.1,0.1-0.2
		c0,0,0.1-0.1,0.1-0.2c0.1,0,0.1,0,0.2,0c0.1,0,0.1,0,0.2,0c0.1,0,0.2,0.1,0.3,0.2C56.1,48.5,56.1,48.6,56.1,48.8L56.1,48.8z
		 M49.2,42.6c0,0,0,0.1,0,0.1c0,0,0,0.1,0,0.1c-0.1,0-0.2,0.1-0.2,0.1c-0.1,0-0.2,0-0.3,0h-0.3c0,0-0.1-0.1-0.1-0.2
		c0-0.1-0.1-0.1-0.1-0.1c0-0.1,0-0.2,0.1-0.3c0-0.1,0.1-0.2,0.2-0.3c0,0,0.1,0,0.1,0c0,0,0.1,0,0.1,0c0.1,0,0.2,0.1,0.4,0.2
		C49.1,42.4,49.2,42.5,49.2,42.6L49.2,42.6z M50.6,44.7c-0.1,0.1-0.1,0.2-0.2,0.4c0,0.1-0.1,0.2-0.3,0.2c-0.2,0-0.3-0.1-0.4-0.2
		c-0.1-0.1-0.1-0.2-0.1-0.4c0-0.1,0-0.2,0.1-0.2c0.1,0,0.1-0.1,0.2-0.1c0.1,0,0.1-0.1,0.2-0.1c0.1,0,0.1,0.1,0.2,0.1
		c0,0.1,0.1,0.1,0.2,0.1L50.6,44.7L50.6,44.7z M52,46.7c0,0.1,0,0.1,0,0.2c0,0,0,0.1-0.1,0.2c0,0,0,0.1,0,0.1c0,0,0,0.1,0,0.1
		c-0.2,0.1-0.4,0.1-0.5,0.1c-0.1,0-0.2,0-0.3,0c-0.1,0-0.2-0.1-0.3-0.1V47c0,0,0-0.1,0-0.2c0-0.1,0-0.1,0-0.1
		c0.1-0.1,0.1-0.1,0.2-0.2c0.1,0,0.1-0.1,0.1-0.2c0.2,0.1,0.3,0.1,0.3,0.1c0.1,0,0.2,0.1,0.3,0.2C51.9,46.7,51.9,46.7,52,46.7z
		 M53.3,48.9c0,0.1-0.1,0.2-0.2,0.3c-0.1,0.1-0.2,0.1-0.3,0.1c-0.1,0-0.1,0-0.2,0c0,0-0.1,0-0.2,0c-0.1-0.1-0.1-0.1-0.1-0.2
		c0-0.1-0.1-0.1-0.1-0.2c0-0.1,0.1-0.2,0.1-0.3c0-0.1,0.1-0.1,0.3-0.2c0.1,0,0.3,0,0.4,0.1C53.2,48.6,53.3,48.7,53.3,48.9L53.3,48.9
		z M54.8,50.8c0,0.1,0,0.2-0.1,0.3c-0.1,0-0.1,0.1-0.2,0.1c-0.1,0-0.1,0-0.2,0c-0.1,0-0.2-0.1-0.3-0.2c-0.1-0.1-0.2-0.2-0.2-0.3
		c0.1-0.1,0.1-0.2,0.2-0.3c0-0.1,0.1-0.2,0.2-0.3c0.1,0,0.1,0,0.2,0c0.1,0,0.2,0.1,0.3,0.2C54.7,50.6,54.8,50.7,54.8,50.8L54.8,50.8
		z M56.2,52.8c0,0.1,0,0.1,0,0.2c0,0.1-0.1,0.1-0.1,0.2c-0.2,0.1-0.3,0.1-0.3,0.1c-0.1,0-0.2,0-0.3-0.1c-0.1,0-0.1-0.1-0.2-0.2v-0.1
		c0-0.1,0-0.1,0-0.2c0-0.1-0.1-0.1-0.1-0.2c0.1,0,0.2-0.1,0.3-0.1c0.1,0,0.2-0.1,0.3-0.1c0.1,0,0.1,0,0.2,0.1
		c0.1,0.1,0.1,0.1,0.2,0.2C56.2,52.6,56.2,52.7,56.2,52.8L56.2,52.8z M57.7,55c-0.1,0.2-0.2,0.3-0.2,0.3c-0.1,0.1-0.2,0.1-0.4,0.1
		c-0.1,0-0.2,0-0.2,0c0,0-0.1-0.1-0.2-0.1c0-0.1,0-0.2-0.1-0.3c0-0.1,0.1-0.1,0.1-0.2c0-0.1,0.1-0.1,0.2-0.2H57c0.1,0,0.2,0,0.2,0
		c0.1,0,0.1,0,0.2,0.1c0.1,0,0.1,0.1,0.2,0.1c0,0.1,0,0.1,0.1,0.2C57.7,54.8,57.7,54.9,57.7,55L57.7,55z M59.2,56.9
		c0,0.1,0,0.2-0.1,0.3c-0.1,0.1-0.2,0.2-0.3,0.2c-0.1,0-0.2,0-0.3-0.1c-0.1-0.1-0.2-0.1-0.2-0.2c0,0,0-0.1,0-0.1c0,0,0-0.1,0-0.1
		v-0.1c0.2-0.2,0.3-0.2,0.5-0.2c0,0,0.1,0,0.1,0c0,0,0.1,0,0.1,0c0,0,0.1,0.1,0.1,0.1c0,0,0.1,0.1,0.1,0.1L59.2,56.9L59.2,56.9z
		 M60.7,59.1c0,0.1-0.1,0.1-0.1,0.2c0,0.1-0.1,0.1-0.1,0.2c-0.1,0-0.1,0-0.2,0c-0.1,0-0.1,0-0.2,0c-0.1-0.1-0.2-0.1-0.3-0.2
		c-0.1-0.1-0.1-0.2-0.1-0.3c0-0.1,0-0.2,0.1-0.3l0.5-0.2C60.4,58.6,60.6,58.8,60.7,59.1L60.7,59.1z M53.4,52.8
		c-0.1,0.1-0.1,0.1-0.1,0.1s0,0.1-0.1,0.2c-0.1,0.1-0.2,0.1-0.3,0.1c-0.2,0-0.4-0.1-0.6-0.3v-0.2c0-0.1,0-0.2,0-0.3
		c0.1,0,0.2-0.1,0.2-0.1c0-0.1,0.1-0.1,0.3-0.1c0.2,0,0.3,0.1,0.5,0.2v0.1c0,0.1,0.1,0.1,0.1,0.1C53.4,52.7,53.4,52.7,53.4,52.8
		L53.4,52.8z M51.9,55c-0.1,0.1-0.2,0.1-0.3,0.2c-0.1,0.1-0.2,0.1-0.3,0.1c0,0-0.1,0-0.1,0c0,0-0.1,0-0.1,0c0-0.1-0.1-0.1-0.1-0.2
		c0,0-0.1,0-0.1,0c0,0-0.1,0-0.1,0c0.1-0.1,0.1-0.1,0.1-0.2c0,0,0-0.1,0.1-0.1c0,0,0-0.1,0-0.1c0,0,0-0.1,0-0.2
		c0.1,0,0.2-0.1,0.2-0.1c0.1,0,0.2-0.1,0.3-0.1c0.1,0,0.2,0.1,0.2,0.2c0.1,0.1,0.1,0.1,0.2,0.2v0.1c0,0,0,0.1,0,0.1
		C51.9,54.9,51.9,54.9,51.9,55L51.9,55z M50.4,56.7c0,0.1,0,0.1-0.1,0.1c0,0,0,0.1,0,0.1c-0.1,0.1-0.3,0.2-0.4,0.2
		c-0.1,0-0.2-0.1-0.3-0.1c-0.1,0-0.2-0.1-0.3-0.2v-0.2c0-0.4,0.2-0.5,0.5-0.5c0.1,0,0.2,0,0.3,0c0,0.1,0.1,0.2,0.1,0.2
		C50.4,56.5,50.4,56.6,50.4,56.7L50.4,56.7z M48.9,59.1c-0.1,0.1-0.1,0.2-0.2,0.3c-0.1,0.1-0.2,0.2-0.3,0.2c-0.1,0-0.1,0-0.2,0
		c-0.1,0-0.1,0-0.2,0c0-0.1-0.1-0.2-0.1-0.2c0-0.1-0.1-0.2-0.1-0.2c0-0.1,0-0.1,0-0.2c0-0.1,0-0.1,0-0.2c0.1,0,0.1,0,0.2-0.1
		c0.1,0,0.1,0,0.2,0c0.1,0,0.1,0,0.2,0.1c0.1,0,0.1,0.1,0.2,0.1c0,0.1,0.1,0.1,0.1,0.2C48.8,59,48.9,59,48.9,59.1L48.9,59.1z
		 M93,43.9c0,0.2-0.1,0.2-0.2,0.3c-0.1,0-0.2,0.1-0.3,0.2c-0.1,0-0.2-0.1-0.2-0.1c-0.1,0-0.2-0.1-0.3-0.1c0-0.1,0-0.1,0-0.2
		c0-0.1,0-0.1,0-0.2c0-0.1,0.1-0.2,0.2-0.3c0.1-0.1,0.2-0.1,0.3-0.1c0.1,0,0.1,0,0.2,0c0.1,0.1,0.1,0.1,0.2,0.2
		C92.9,43.7,93,43.8,93,43.9L93,43.9z M91.1,42.6c0,0,0,0.1,0,0.1c0,0,0,0.1,0,0.1c-0.1,0.1-0.1,0.1-0.2,0.1c-0.1,0-0.1,0-0.1,0.2
		c-0.2,0-0.3,0-0.4-0.1c0-0.1-0.1-0.1-0.3-0.2v-0.3c0-0.1,0-0.2,0.1-0.3c0.1,0,0.2,0,0.3,0c0.1,0,0.2,0,0.3,0
		c0.1,0.1,0.1,0.1,0.2,0.2C91,42.4,91.1,42.5,91.1,42.6L91.1,42.6z M93.6,46c0,0.1,0,0.1,0,0.2c0,0.1,0,0.1,0,0.2
		c-0.2,0.1-0.4,0.1-0.5,0.1c-0.1,0-0.3,0-0.4-0.1c0-0.1,0-0.1,0-0.2c0-0.1,0-0.1,0-0.2c0-0.1,0-0.2,0.1-0.3c0.1-0.1,0.2-0.1,0.3-0.2
		l0-0.1c0.1,0.1,0.2,0.1,0.2,0.2c0.1,0,0.1,0,0.3,0c0,0.1,0,0.1,0.1,0.2C93.6,45.8,93.6,45.9,93.6,46L93.6,46z M88.7,42.2
		c0,0.1,0,0.2-0.1,0.3c0,0.1,0,0.2-0.1,0.2c-0.2,0.1-0.3,0.1-0.4,0.1c-0.1,0-0.2-0.1-0.3-0.2c-0.1-0.1-0.1-0.2-0.1-0.3
		c0-0.1,0-0.1,0-0.2c0-0.1,0.1-0.1,0.1-0.2c0.1,0,0.1,0,0.2,0c0.1,0,0.1,0,0.2,0c0.1,0,0.2,0,0.3,0c0.1,0.1,0.1,0.1,0.1,0.1
		C88.5,42.1,88.6,42.1,88.7,42.2L88.7,42.2z M93,48.2v0.2c-0.1,0.1-0.3,0.2-0.5,0.2c-0.2,0-0.4-0.1-0.5-0.2c0,0,0-0.1,0-0.1
		c0,0,0-0.1,0-0.1c0-0.1,0-0.2,0-0.2c0,0,0.1-0.1,0.1-0.1c0.1-0.1,0.2-0.1,0.3-0.1c0.1,0,0.1,0,0.2,0.1c0.1,0,0.1,0.1,0.1,0.1
		c0,0,0.1,0,0.1,0c0,0.1,0,0.1,0,0.2C93,48.1,93,48.1,93,48.2L93,48.2z M86.4,43c0,0.1,0,0.2-0.1,0.2c0,0-0.1,0.1-0.2,0.2
		c0,0-0.1,0-0.1,0c0,0-0.1,0-0.1,0c-0.1,0-0.2,0-0.3-0.1c0,0-0.1,0-0.1-0.1c0,0,0-0.1,0-0.1c0-0.1,0-0.2,0-0.2c0-0.1,0-0.1,0-0.2
		c0,0,0-0.1,0-0.1c0,0,0,0,0.1,0c0,0,0.1,0,0.1,0c0,0,0.1,0,0.1,0c0.1,0,0.2,0,0.2,0c0.1,0,0.2,0,0.3,0c0,0-0.1,0.1-0.1,0.2
		c0,0,0.1,0.1,0.1,0.1C86.3,42.9,86.3,42.9,86.4,43L86.4,43z M91.4,49.3c0,0.1,0,0.2-0.1,0.3c-0.1,0.1-0.1,0.1-0.2,0.2h-0.2
		c-0.1,0-0.2,0-0.3-0.1c-0.1,0-0.2-0.1-0.3-0.1c0-0.1,0-0.2,0-0.3c0-0.1,0-0.2,0-0.3c0.1,0,0.2,0,0.2-0.1c0.1,0,0.2-0.1,0.2-0.1
		c0.1,0,0.2,0,0.3,0.1C91.3,49.1,91.4,49.2,91.4,49.3L91.4,49.3z M93.4,52.5c0,0.1,0,0.2-0.1,0.3C93.2,52.9,93.1,53,93,53
		c-0.2,0-0.3,0-0.4-0.1c-0.1-0.1-0.2-0.2-0.2-0.4c0-0.1,0-0.2,0-0.2c0.1-0.1,0.2-0.1,0.2-0.1c0.1,0,0.1-0.1,0.2-0.1
		c0.1,0,0.2,0.1,0.4,0.2C93.3,52.2,93.4,52.3,93.4,52.5z M91.9,51.2c0,0.1-0.1,0.2-0.2,0.2c-0.1,0-0.2,0.1-0.2,0.2
		c-0.1,0-0.1-0.1-0.2-0.1c-0.1,0-0.1,0-0.2-0.1c0-0.1-0.1-0.1-0.1-0.2c0-0.1,0-0.1,0-0.2c0-0.2,0.1-0.4,0.4-0.4c0.1,0,0.1,0,0.2,0
		c0.1,0,0.1,0,0.2,0c0.1,0.1,0.1,0.2,0.2,0.2C91.9,51,91.9,51.1,91.9,51.2L91.9,51.2z M84.5,44.1c0,0.1-0.1,0.3-0.2,0.4
		c-0.1,0.2-0.2,0.2-0.4,0.2c-0.2,0-0.3,0-0.4-0.1c-0.1-0.1-0.2-0.2-0.2-0.4c0-0.1,0-0.2,0.1-0.2c0.1-0.1,0.1-0.1,0.2-0.2
		C84,43.8,84.3,43.9,84.5,44.1L84.5,44.1z M89.7,50.3c0,0.2-0.1,0.3-0.2,0.3c-0.1,0.1-0.3,0.1-0.4,0.1l-0.4-0.2c0-0.1,0-0.1-0.1-0.2
		c0-0.1-0.1-0.1,0-0.2c0.1-0.1,0.1-0.1,0.2-0.1c0,0,0.1-0.1,0.1-0.2c0.1,0,0.1,0,0.2,0c0.1,0,0.1,0,0.2,0c0,0,0.1,0,0.1,0
		c0,0,0.1,0,0.1,0c0,0.1,0.1,0.1,0.1,0.2C89.7,50.1,89.7,50.2,89.7,50.3L89.7,50.3z M94.1,54.9c-0.1,0.1-0.3,0.3-0.4,0.4
		c-0.2,0-0.3,0-0.4-0.1c-0.1-0.1-0.2-0.2-0.3-0.3c0.1-0.1,0.1-0.2,0.2-0.3c0-0.1,0.1-0.1,0.3-0.1c0,0,0.1,0,0.1,0
		C93.9,54.4,94.1,54.5,94.1,54.9L94.1,54.9z M87.6,50.3c0,0.1-0.1,0.2-0.2,0.3c-0.1,0.1-0.2,0.1-0.3,0.1c0,0-0.1,0-0.2,0l-0.3-0.3
		v-0.2c0-0.3,0.1-0.4,0.4-0.4c0.1,0,0.2,0,0.2,0c0.1,0,0.1,0.1,0.2,0.1c0,0.1,0.1,0.1,0.1,0.2C87.5,50.2,87.5,50.2,87.6,50.3
		L87.6,50.3z M93.3,57.1c0,0,0,0.1,0,0.1c0,0,0,0.1,0,0.1c-0.1,0.1-0.1,0.1-0.2,0.2c-0.1,0.1-0.1,0.1-0.3,0.1c-0.1,0-0.2,0-0.3-0.1
		s-0.2-0.1-0.3-0.2c0-0.1,0-0.1,0-0.2c0-0.1,0-0.1,0-0.2c0,0,0-0.1,0-0.2c0-0.1,0-0.1,0.1-0.2c0.1,0,0.1,0,0.2-0.1
		c0.1,0,0.1,0,0.2,0c0.1,0,0.1,0,0.2,0c0.1,0,0.1,0,0.2,0.1c0,0.1,0.1,0.1,0.1,0.2C93.3,56.9,93.3,57,93.3,57.1z M91.7,59.2
		c-0.1,0-0.2,0.1-0.3,0.1c-0.1,0.1-0.2,0.1-0.3,0.1c-0.1,0-0.1,0-0.2,0c-0.1,0-0.1-0.1-0.2-0.1c0-0.1-0.1-0.1-0.1-0.1v-0.2
		c0-0.2,0.1-0.3,0.2-0.4c0.1,0,0.2-0.1,0.4-0.1c0.2,0.1,0.3,0.1,0.3,0.2c0,0,0.1,0.1,0.2,0.3c0,0,0,0.1,0,0.2
		C91.6,59.1,91.6,59.1,91.7,59.2C91.6,59.1,91.6,59.2,91.7,59.2L91.7,59.2z M89,59.5c0,0.1,0,0.1,0,0.2c-0.1,0-0.2,0.1-0.2,0.1
		c-0.1,0-0.2,0.1-0.3,0.1c-0.1,0-0.2,0-0.3-0.1c-0.1-0.1-0.1-0.1-0.2-0.2c0-0.1,0-0.2,0-0.3c0-0.1,0.1-0.2,0.1-0.3
		c0.1,0,0.2-0.1,0.2-0.1c0.1,0,0.2,0,0.3,0c0.1,0,0.1,0,0.2,0.1c0,0.1,0.1,0.2,0.1,0.2C89,59.3,89,59.4,89,59.5L89,59.5z M86.6,58.6
		c0,0.2-0.1,0.4-0.2,0.5c-0.1,0-0.2,0-0.3,0l-0.3,0c0-0.1-0.1-0.1-0.1-0.2c-0.1,0-0.1-0.1-0.1-0.1c0-0.1,0.1-0.2,0-0.3
		c0.1-0.1,0.2-0.1,0.2-0.2c0.1,0,0.2-0.1,0.3-0.1h0.3L86.6,58.6L86.6,58.6z M84.6,57.5c0,0.1-0.1,0.3-0.2,0.4
		c-0.1,0-0.1,0.1-0.2,0.1c-0.1,0-0.1,0.1-0.2,0.1c-0.1-0.1-0.2-0.2-0.3-0.2c-0.1,0-0.2-0.2-0.2-0.3c0,0,0-0.1,0-0.1c0,0,0-0.1,0-0.1
		c0.1-0.1,0.1-0.1,0.1-0.1c0,0,0.1-0.1,0.1-0.2c0.1,0,0.2,0,0.4,0c0.1,0,0.2,0,0.3,0.1C84.6,57.3,84.6,57.4,84.6,57.5L84.6,57.5z"/>
	<path class="st0" d="M125,49.4c0,0.1,0,0.1,0,0.2c0,0.1-0.1,0.1-0.1,0.2c-0.1,0-0.1,0.1-0.2,0.1c0,0-0.1,0.1-0.2,0.1
		c-0.1,0-0.3-0.1-0.4-0.1c-0.1,0-0.2-0.2-0.2-0.3c0-0.1,0-0.1,0-0.1c0,0,0-0.1,0-0.2c0.1-0.1,0.2-0.1,0.2-0.2c0.1,0,0.2-0.1,0.3-0.1
		c0.1,0,0.2,0,0.2,0c0.1,0,0.2,0,0.2,0c0,0.1,0,0.1,0,0.2C125,49.3,125,49.3,125,49.4L125,49.4z M123.2,49.5c0,0.2-0.1,0.3-0.2,0.4
		c-0.1,0.1-0.3,0.2-0.4,0.2c0,0-0.1-0.1-0.1-0.1c0,0-0.1,0-0.1,0l-0.3-0.3c0-0.1,0.1-0.1,0.1-0.2c0-0.1,0.1-0.1,0.1-0.2
		c0.2-0.1,0.3-0.1,0.5-0.1h0.2c0,0.1,0.1,0.1,0.1,0.2C123.2,49.3,123.2,49.4,123.2,49.5L123.2,49.5z M121.6,49.5
		c0,0.1-0.1,0.2-0.2,0.4c-0.1,0.1-0.2,0.2-0.4,0.2c-0.1,0-0.1,0-0.2-0.1c0,0-0.1-0.1-0.2-0.1l-0.2-0.4c0-0.1,0.1-0.2,0.1-0.3
		c0.1,0,0.1-0.1,0.2-0.1c0.1,0,0.2,0,0.2-0.1c0.1,0.1,0.2,0.1,0.3,0.2C121.4,49.3,121.5,49.4,121.6,49.5L121.6,49.5z M124.9,53.7
		c-0.1,0-0.1,0.1-0.2,0.1c0,0-0.1,0.1-0.2,0.1c-0.1,0-0.3-0.1-0.4-0.1c-0.1,0-0.2-0.1-0.2-0.3c0-0.1,0-0.1,0-0.2c0,0,0-0.1,0-0.2
		c0.1-0.1,0.2-0.1,0.2-0.2c0.1,0,0.2-0.1,0.3-0.1c0.1,0,0.1,0,0.1,0c0.2,0,0.3,0,0.3,0.1c0,0.1,0.1,0.1,0.1,0.2c0,0,0,0.1,0,0.2
		C125,53.6,124.9,53.7,124.9,53.7L124.9,53.7z M119.8,49.5c0,0.2-0.1,0.3-0.2,0.4c-0.1,0.1-0.3,0.1-0.5,0.1c-0.1,0-0.2,0-0.3-0.1
		c-0.1-0.1-0.2-0.2-0.2-0.3c0-0.1,0.1-0.3,0.2-0.4c0.1-0.1,0.2-0.2,0.3-0.2c0.1,0,0.2,0,0.2,0c0.1,0,0.2,0.1,0.2,0.1
		c0,0.1,0.1,0.1,0.1,0.2C119.8,49.4,119.8,49.4,119.8,49.5L119.8,49.5z M123.2,53.4c0,0.1-0.1,0.3-0.2,0.4c-0.1,0.1-0.2,0.2-0.4,0.2
		c-0.1,0-0.1,0-0.2,0c0,0-0.1,0-0.2,0l-0.3-0.3c0-0.1,0.1-0.1,0.1-0.2c0-0.1,0.1-0.1,0.1-0.2c0.2-0.1,0.3-0.1,0.5-0.1h0.2
		c0,0.1,0.1,0.1,0.1,0.2C123.2,53.2,123.2,53.3,123.2,53.4z M118.1,49.5c0,0.1,0,0.2,0,0.2c0,0-0.1,0.1-0.1,0.2
		c-0.1,0-0.1,0.1-0.2,0.1c0,0-0.1,0.1-0.2,0.1c-0.1,0-0.3-0.1-0.4-0.1c-0.1-0.1-0.2-0.2-0.2-0.3c0-0.1,0-0.1,0-0.2c0,0,0-0.1,0-0.2
		c0.2-0.2,0.3-0.2,0.5-0.2c0.1,0,0.2,0,0.2,0c0.1,0,0.2,0,0.2,0c0,0.1,0,0.1,0,0.2C118,49.3,118.1,49.4,118.1,49.5L118.1,49.5z
		 M121.6,53.4c0,0.1-0.1,0.2-0.1,0.2c0,0-0.1,0.1-0.1,0.1c0,0-0.1,0-0.1,0c0,0-0.1,0.1-0.1,0.1c-0.1,0-0.1,0-0.2,0
		c-0.1,0-0.1,0-0.2-0.1c-0.1,0-0.1-0.1-0.2-0.1l-0.2-0.4c0-0.1,0.1-0.2,0.1-0.3c0-0.1,0-0.1,0.1-0.1c0.1,0,0.2,0,0.2,0
		c0,0,0.1,0,0.1-0.1c0.1,0.1,0.2,0.1,0.3,0.2C121.4,53.2,121.5,53.3,121.6,53.4L121.6,53.4z M119.8,53.4c0,0.1,0,0.2-0.1,0.2
		c0,0.1-0.1,0.1-0.2,0.2c-0.1,0-0.2,0.1-0.2,0.1c-0.1,0-0.1,0-0.2,0c-0.1,0-0.2,0-0.3-0.1c-0.1-0.1-0.2-0.2-0.2-0.3
		c0-0.1,0-0.2,0-0.2c0,0,0.1-0.1,0.1-0.2c0,0,0.1-0.1,0.2-0.1c0.1,0,0.1-0.1,0.2-0.1c0.1,0,0.2,0,0.2,0c0.1,0,0.2,0.1,0.2,0.1
		c0,0.1,0.1,0.1,0.1,0.2C119.8,53.2,119.8,53.3,119.8,53.4L119.8,53.4z M118.1,53.3c0,0.1,0,0.2-0.1,0.2c0,0.1-0.1,0.1-0.1,0.2
		c-0.1,0-0.1,0.1-0.2,0.1c0,0-0.1,0.1-0.2,0.1c-0.1,0-0.2-0.1-0.4-0.1c-0.2-0.1-0.2-0.2-0.2-0.3c0-0.1,0-0.1,0-0.2c0,0,0-0.1,0-0.2
		c0.1-0.2,0.3-0.2,0.5-0.2c0.1,0,0.1,0,0.1,0c0.1,0,0.1,0,0.2,0.1c0,0.1,0.1,0.1,0.1,0c0,0,0,0.1,0.1,0.1
		C118.1,53.2,118.1,53.3,118.1,53.3L118.1,53.3z M24,76.9L24,76.9c0,0.1-0.1,0.2-0.1,0.2c0,0,0,0.1,0,0.1c-0.1,0.1-0.1,0.1-0.2,0.1
		c-0.1,0-0.1,0-0.2,0c-0.1,0-0.2,0-0.2-0.1c0-0.1-0.1-0.1-0.2,0c0-0.1,0-0.1,0-0.2c0-0.1,0-0.1,0-0.2c0-0.1,0-0.2,0.1-0.3
		c0.1-0.1,0.2-0.1,0.3-0.1c0.1,0,0.3,0,0.4,0.1C23.9,76.7,24,76.8,24,76.9L24,76.9z M22.2,75.5c0,0.1,0,0.1,0,0.2
		c0,0-0.1,0.1-0.1,0.1c-0.1,0-0.2,0.1-0.4,0.1c-0.1,0-0.2,0-0.2-0.1c-0.1,0-0.2-0.1-0.2-0.1v-0.3c0-0.3,0.1-0.4,0.4-0.4
		c0,0,0.1,0,0.1,0c0.1,0,0.1,0,0.2,0c0,0.1,0.1,0.2,0.1,0.2C22.2,75.4,22.2,75.4,22.2,75.5L22.2,75.5z M25,79.4
		c-0.1,0.2-0.2,0.3-0.2,0.4c0,0.1-0.2,0.1-0.4,0.1c-0.1,0-0.1,0-0.2,0c0,0-0.1,0-0.2,0c0-0.1-0.1-0.1-0.1-0.2c0-0.1,0-0.1,0-0.2
		c0,0,0,0,0-0.1c0,0,0-0.1,0-0.1l0-0.1l0.1-0.1c0,0,0.1,0,0.1,0c0,0,0.1,0,0.1,0c0,0,0.1,0,0.1,0c0.1,0,0.1,0,0.2,0
		c0.1,0,0.1,0,0.2,0c0,0.1,0,0.1,0.1,0.2C24.9,79.2,25,79.3,25,79.4L25,79.4z M19.9,75.6c0,0.1,0,0.2,0,0.3c-0.1,0-0.1,0-0.2,0
		c0,0-0.1,0-0.2,0.1c-0.1,0-0.2-0.1-0.3-0.1C19.1,76,19,76,19,75.9v-0.3v-0.1c0,0,0.1-0.1,0.1-0.2c0-0.1,0.1-0.1,0.1-0.1
		c0.1,0,0.2,0,0.2,0c0.1,0,0.1,0,0.1,0c0,0,0.1,0,0.1,0.1c0,0,0.1,0.1,0.2,0.1C19.9,75.5,19.9,75.6,19.9,75.6L19.9,75.6z M24.7,82.1
		c0,0.1,0,0.2-0.1,0.3c-0.1,0.1-0.1,0.1-0.3,0.1c-0.1,0-0.2,0-0.2,0c-0.1,0-0.2,0-0.2-0.1c-0.1,0-0.1-0.1-0.2-0.2v-0.2
		c0-0.1,0-0.1,0-0.2c0-0.1,0-0.1,0-0.2c0.1,0,0.1-0.1,0.2-0.1c0.1,0,0.1-0.1,0.2-0.1c0.1,0,0.2,0,0.3,0.1c0.1,0.1,0.2,0.2,0.2,0.2
		V82.1L24.7,82.1z M17.8,76.6c0,0.1,0,0.2-0.1,0.3c-0.1,0.1-0.1,0.1-0.2,0.2C17.3,77,17.2,77,17.1,77c-0.1,0-0.2-0.1-0.3-0.2v-0.1
		c0,0,0-0.1,0-0.1c0,0,0-0.1,0-0.1c0-0.2,0.1-0.3,0.2-0.3c0.1-0.1,0.2-0.1,0.4-0.1c0.1,0,0.1,0,0.2,0c0.1,0.1,0.1,0.2,0.2,0.2
		C17.7,76.4,17.8,76.5,17.8,76.6z M23.5,84.5c0,0.1,0,0.2-0.1,0.3c-0.1,0.1-0.1,0.2-0.2,0.2H23c-0.1,0-0.2,0-0.3-0.1
		c0-0.1-0.1-0.2-0.1-0.2c0-0.1-0.1-0.1-0.1-0.2c0,0,0-0.1,0-0.1c0,0,0.1-0.1,0.1-0.2c0-0.1,0.1-0.1,0.2-0.1H23c0,0,0.1,0,0.1,0
		c0,0,0.1,0,0.1,0c0.1,0.1,0.1,0.1,0.2,0.2C23.5,84.4,23.5,84.5,23.5,84.5z M16,78.4c0,0.1-0.1,0.2-0.2,0.2
		c-0.1,0.1-0.2,0.1-0.3,0.1c0,0-0.1,0-0.1,0c0,0,0,0-0.1,0c-0.1-0.1-0.1-0.1-0.1-0.1c0,0-0.1,0-0.2,0c0,0,0-0.1,0-0.2
		c0,0,0-0.1,0-0.1c0,0-0.1-0.1-0.1-0.1c0.1,0,0.1-0.1,0.2-0.1c0,0,0.1-0.1,0.2-0.1c0.1,0,0.2-0.1,0.3-0.1c0,0,0.1,0,0.2,0L16,78
		C16,78,16,78.4,16,78.4z M21.9,86.6c0,0.1,0,0.2-0.1,0.3c-0.1,0.1-0.1,0.2-0.2,0.2h-0.2c0,0-0.1,0-0.1,0c0,0-0.1,0-0.1,0
		c-0.1,0-0.2,0-0.2-0.1c0-0.1-0.1-0.1-0.2-0.2c0,0,0-0.1,0-0.2c0-0.1,0-0.1,0-0.2c0,0,0-0.1,0-0.2c0.1,0,0.2-0.1,0.2-0.1
		c0.1,0,0.2-0.1,0.3-0.1c0.1,0,0.2,0,0.3,0.1c0,0,0.1,0.1,0.1,0.2C21.9,86.5,21.9,86.5,21.9,86.6L21.9,86.6z M25.3,92.5
		c0,0-0.1,0.1-0.1,0.1c0,0-0.1,0.1-0.1,0.1c-0.1,0-0.2,0.1-0.3,0l-0.1,0c-0.1-0.1-0.1-0.1-0.1-0.1c0,0-0.1-0.1-0.2-0.1v-0.2
		c0-0.2,0-0.3,0.1-0.4c0.1-0.1,0.2-0.2,0.4-0.2c0,0,0.1,0,0.2,0c0.1,0.1,0.2,0.2,0.2,0.3C25.2,92.3,25.3,92.4,25.3,92.5L25.3,92.5z
		 M20.1,88.6c0,0.1-0.1,0.2-0.1,0.3c-0.1,0.1-0.2,0.1-0.3,0.1c-0.4,0-0.6-0.2-0.6-0.6c0-0.1,0-0.1,0.1-0.2c0.1,0,0.1-0.1,0.2-0.1
		c0.1,0,0.1-0.1,0.2-0.1c0.1,0,0.1,0,0.2,0c0,0,0.1,0,0.1-0.1c0.1,0.1,0.1,0.2,0.2,0.3C20,88.3,20,88.4,20.1,88.6L20.1,88.6z
		 M23.1,92.4c-0.1,0.1-0.1,0.2-0.2,0.3c0,0-0.1,0.1-0.2,0.2c-0.1-0.1-0.3-0.1-0.4-0.2c-0.1-0.1-0.2-0.2-0.2-0.3
		c0-0.2,0.1-0.3,0.2-0.4c0.1-0.1,0.3-0.1,0.4-0.1c0.1,0,0.1,0,0.2,0c0.1,0,0.1,0,0.2,0v0.2c0,0,0,0.1,0,0.1
		C23.1,92.3,23.1,92.3,23.1,92.4z M20.8,92.2c0,0.1-0.1,0.2-0.2,0.4c-0.1,0.1-0.2,0.2-0.3,0.1c-0.1,0-0.2,0.1-0.3,0.1
		c-0.1,0-0.1,0-0.1-0.1c-0.1-0.1-0.2-0.2-0.2-0.3c0-0.1,0-0.2,0.1-0.3c0.1-0.1,0.1-0.2,0.2-0.3l0.4,0.1
		C20.5,92.1,20.6,92.2,20.8,92.2z M18.1,90.4c0,0.1,0,0.2-0.2,0.3c-0.1,0.1-0.2,0.1-0.4,0.1h-0.2c-0.1,0-0.1-0.1-0.2-0.1
		c0,0-0.1-0.1-0.1-0.2c0-0.1,0-0.2,0.1-0.3c0.1-0.1,0.1-0.2,0.2-0.3l0.1,0.1c0,0,0.1,0,0.1,0c0,0,0.1,0,0.1,0c0.1,0,0.1,0,0.2,0.1
		c0.1,0.1,0.1,0.1,0.2,0.2V90.4L18.1,90.4z M18.4,92.4c-0.1,0.1-0.1,0.1-0.2,0.2c-0.1,0.1-0.1,0.2-0.2,0.2c-0.2,0-0.3-0.1-0.3-0.1
		c0,0-0.1-0.1-0.3-0.2c0-0.1,0-0.2,0.1-0.3c0-0.1,0.1-0.2,0.2-0.3c0.1,0,0.1,0,0.2,0c0.1,0,0.1,0,0.2,0c0.1,0.1,0.2,0.2,0.2,0.2
		C18.3,92.2,18.4,92.3,18.4,92.4L18.4,92.4z M16,92.2c0,0.1,0,0.2,0,0.3c0,0.1-0.1,0.2-0.1,0.3c-0.2,0.1-0.3,0.1-0.4,0.1
		c-0.1,0-0.1,0-0.2-0.1c-0.1,0-0.1-0.1-0.2-0.1c0-0.1,0-0.2,0-0.3c0-0.1,0-0.2,0.1-0.3c0.1-0.1,0.2-0.2,0.3-0.2c0.1,0,0.1,0,0.2,0
		c0.1,0,0.1,0,0.2,0c0,0.1,0.1,0.1,0.1,0.1C15.9,92.1,16,92.1,16,92.2L16,92.2z M60.3,76c-0.1,0-0.2,0.1-0.2,0.1
		c0,0-0.1,0.1-0.2,0.1c0,0-0.1,0-0.1,0c0,0-0.1,0-0.1,0l-0.1,0c-0.1,0-0.2-0.1-0.3-0.2c0-0.1-0.1-0.2-0.1-0.3c0-0.1,0.1-0.1,0.1-0.2
		c0,0,0.1-0.1,0.2-0.2c0,0,0.1,0,0.2,0c0.1,0,0.1,0,0.2,0c0.1,0,0.1,0,0.2,0c0,0.1,0.1,0.2,0.1,0.3C60.2,75.8,60.3,75.9,60.3,76
		L60.3,76z M59.1,77.7c0,0.1-0.1,0.2-0.2,0.3c-0.1,0.1-0.2,0.1-0.4,0.1c-0.1,0-0.1,0-0.2,0c-0.1,0-0.1-0.1-0.2-0.1
		c0-0.1-0.1-0.1-0.1-0.2c0-0.1,0-0.1,0-0.1c0,0,0-0.1,0-0.1c0,0,0-0.1,0.1-0.1c0.1-0.1,0.1-0.2,0.2-0.3c0.2,0,0.4,0,0.6,0.1
		c0,0.1,0.1,0.2,0.1,0.2C59.1,77.5,59.1,77.6,59.1,77.7L59.1,77.7z M57.6,79.9c0,0.1-0.1,0.1-0.1,0.2c0,0.1-0.1,0.1-0.1,0.2
		c-0.1,0.1-0.3,0.2-0.3,0.2c-0.2,0-0.3,0-0.3-0.1c0-0.1-0.1-0.2-0.2-0.3v-0.1c0-0.1,0-0.2,0.1-0.2c0,0,0.1-0.1,0.1-0.1
		c0.1,0,0.1-0.1,0.1-0.1c0,0,0.1,0,0.1,0l0.1,0c0,0,0.1,0.1,0.1,0.1c0.1,0,0.1,0.1,0.1,0.1c0.1,0.1,0.1,0.1,0.1,0.2
		C57.4,79.9,57.5,79.9,57.6,79.9L57.6,79.9z M56.1,82c0,0.1,0,0.2,0,0.3c0,0.1-0.1,0.1-0.2,0.2h-0.2c-0.1,0-0.2,0-0.3-0.1
		c-0.1,0-0.1-0.1-0.2-0.1c0,0,0-0.1,0-0.2c0-0.1,0-0.1,0-0.2c0-0.1,0-0.1,0.1-0.2c0,0,0.1-0.1,0.1-0.2c0.1,0,0.1,0,0.2,0
		c0.1,0,0.1,0,0.2,0c0.1,0,0.2,0.1,0.3,0.2C56.1,81.8,56.1,81.9,56.1,82L56.1,82z M49.2,75.9c0,0,0,0.1,0,0.1c0,0,0,0.1,0,0.1
		c-0.1,0-0.2,0.1-0.2,0.1c-0.1,0-0.2,0-0.3,0h-0.3c0,0-0.1-0.1-0.1-0.2c0-0.1-0.1-0.1-0.1-0.1c0-0.1,0-0.2,0.1-0.3
		c0-0.1,0.1-0.2,0.2-0.3c0,0,0.1,0,0.1,0c0,0,0.1,0,0.1,0c0.1,0,0.2,0.1,0.4,0.2C49.1,75.6,49.2,75.7,49.2,75.9L49.2,75.9z
		 M50.6,77.9c-0.1,0.1-0.1,0.2-0.2,0.4c0,0.1-0.1,0.2-0.3,0.2c-0.2,0-0.3-0.1-0.4-0.2c-0.1-0.1-0.1-0.2-0.1-0.4c0-0.1,0-0.2,0.1-0.2
		c0.1,0,0.1-0.1,0.2-0.1c0.1,0,0.1-0.1,0.2-0.1c0.1,0,0.1,0.1,0.2,0.1c0,0.1,0.1,0.1,0.2,0.1L50.6,77.9L50.6,77.9z M52,79.9
		c0,0.1,0,0.1,0,0.2c0,0,0,0.1-0.1,0.2c0,0,0,0.1,0,0.1c0,0,0,0.1,0,0.1c-0.2,0.1-0.4,0.1-0.5,0.1c-0.1,0-0.2,0-0.3,0
		c-0.1,0-0.2-0.1-0.3-0.1v-0.2c0,0,0-0.1,0-0.2c0-0.1,0-0.1,0-0.1c0.1-0.1,0.1-0.1,0.2-0.2c0.1,0,0.1-0.1,0.1-0.2
		c0.2,0.1,0.3,0.1,0.3,0.1c0.1,0,0.2,0.1,0.3,0.2C51.9,79.9,51.9,79.9,52,79.9z M53.3,82.2c0,0.1-0.1,0.2-0.2,0.3
		c-0.1,0.1-0.2,0.1-0.3,0.1c-0.1,0-0.1,0-0.2,0c0,0-0.1,0-0.2,0c-0.1-0.1-0.1-0.1-0.1-0.2c0-0.1-0.1-0.1-0.1-0.2
		c0-0.1,0.1-0.2,0.1-0.3c0-0.1,0.1-0.1,0.3-0.2c0.1,0,0.3,0,0.4,0.1C53.2,81.9,53.3,82,53.3,82.2L53.3,82.2z M54.8,84.1
		c0,0.1,0,0.2-0.1,0.3c-0.1,0-0.1,0.1-0.2,0.1c-0.1,0-0.1,0-0.2,0c-0.1,0-0.2-0.1-0.3-0.2c-0.1-0.1-0.2-0.2-0.2-0.3
		c0.1-0.1,0.1-0.2,0.2-0.3c0-0.1,0.1-0.2,0.2-0.3c0.1,0,0.1,0,0.2,0c0.1,0,0.2,0.1,0.3,0.2C54.7,83.8,54.8,84,54.8,84.1L54.8,84.1z
		 M56.2,86c0,0.1,0,0.1,0,0.2c0,0.1-0.1,0.1-0.1,0.2c-0.2,0.1-0.3,0.1-0.3,0.1c-0.1,0-0.2,0-0.3-0.1c-0.1,0-0.1-0.1-0.2-0.2v-0.1
		c0-0.1,0-0.1,0-0.2c0-0.1-0.1-0.1-0.1-0.2c0.1,0,0.2-0.1,0.3-0.1c0.1,0,0.2-0.1,0.3-0.1c0.1,0,0.1,0,0.2,0.1
		c0.1,0.1,0.1,0.1,0.2,0.2C56.2,85.9,56.2,85.9,56.2,86L56.2,86z M57.7,88.2c-0.1,0.2-0.2,0.3-0.2,0.3c-0.1,0.1-0.2,0.1-0.4,0.1
		c-0.1,0-0.2,0-0.2,0c0,0-0.1-0.1-0.2-0.1c0-0.1,0-0.2-0.1-0.3c0-0.1,0.1-0.1,0.1-0.2c0-0.1,0.1-0.1,0.2-0.2H57c0.1,0,0.2,0,0.2,0
		c0.1,0,0.1,0,0.2,0.1c0.1,0,0.1,0.1,0.2,0.1c0,0.1,0,0.1,0.1,0.2C57.7,88,57.7,88.1,57.7,88.2L57.7,88.2z M59.2,90.2
		c0,0.1,0,0.2-0.1,0.3c-0.1,0.1-0.2,0.2-0.3,0.2c-0.1,0-0.2,0-0.3-0.1c-0.1-0.1-0.2-0.1-0.2-0.2c0,0,0-0.1,0-0.1c0,0,0-0.1,0-0.1V90
		c0.2-0.2,0.3-0.2,0.5-0.2c0,0,0.1,0,0.1,0c0,0,0.1,0,0.1,0c0,0,0.1,0.1,0.1,0.1c0,0,0.1,0.1,0.1,0.1L59.2,90.2L59.2,90.2z
		 M60.7,92.3c0,0.1-0.1,0.1-0.1,0.2c0,0.1-0.1,0.1-0.1,0.2c-0.1,0-0.1,0-0.2,0c-0.1,0-0.1,0-0.2,0c-0.1-0.1-0.2-0.1-0.3-0.2
		c-0.1-0.1-0.1-0.2-0.1-0.3c0-0.1,0-0.2,0.1-0.3l0.5-0.2C60.4,91.8,60.6,92,60.7,92.3L60.7,92.3z M53.4,86c-0.1,0.1-0.1,0.1-0.1,0.1
		c0,0,0,0.1-0.1,0.2c-0.1,0.1-0.2,0.1-0.3,0.1c-0.2,0-0.4-0.1-0.6-0.3v-0.2c0-0.1,0-0.2,0-0.3c0.1,0,0.2-0.1,0.2-0.1
		c0-0.1,0.1-0.1,0.3-0.1c0.2,0,0.3,0.1,0.5,0.2v0.1c0,0.1,0.1,0.1,0.1,0.1C53.4,85.9,53.4,86,53.4,86L53.4,86z M51.9,88.2
		c-0.1,0.1-0.2,0.1-0.3,0.2c-0.1,0.1-0.2,0.1-0.3,0.1c0,0-0.1,0-0.1,0c0,0-0.1,0-0.1,0c0-0.1-0.1-0.1-0.1-0.2c0,0-0.1,0-0.1,0
		c0,0-0.1,0-0.1,0c0.1-0.1,0.1-0.1,0.1-0.2c0,0,0-0.1,0.1-0.1c0,0,0-0.1,0-0.1c0,0,0-0.1,0-0.2c0.1,0,0.2-0.1,0.2-0.1
		c0.1,0,0.2-0.1,0.3-0.1c0.1,0,0.2,0.1,0.2,0.2c0.1,0.1,0.1,0.1,0.2,0.2V88c0,0,0,0.1,0,0.1C51.9,88.1,51.9,88.2,51.9,88.2
		L51.9,88.2z M50.4,90c0,0.1,0,0.1-0.1,0.1c0,0,0,0.1,0,0.1c-0.1,0.1-0.3,0.2-0.4,0.2c-0.1,0-0.2-0.1-0.3-0.1
		c-0.1,0-0.2-0.1-0.3-0.2v-0.2c0-0.4,0.2-0.5,0.5-0.5c0.1,0,0.2,0,0.3,0c0,0.1,0.1,0.2,0.1,0.2C50.4,89.8,50.4,89.9,50.4,90L50.4,90
		z M48.9,92.4c-0.1,0.1-0.1,0.2-0.2,0.3c-0.1,0.1-0.2,0.2-0.3,0.2c-0.1,0-0.1,0-0.2,0c-0.1,0-0.1,0-0.2,0c0-0.1-0.1-0.2-0.1-0.2
		c0-0.1-0.1-0.2-0.1-0.2c0-0.1,0-0.1,0-0.2c0-0.1,0-0.1,0-0.2c0.1,0,0.1,0,0.2-0.1c0.1,0,0.1,0,0.2,0c0.1,0,0.1,0,0.2,0.1
		c0.1,0,0.1,0.1,0.2,0.1c0,0.1,0.1,0.1,0.1,0.2C48.8,92.2,48.9,92.3,48.9,92.4L48.9,92.4z"/>
	<path class="st0" d="M92.5,75.7c-0.1,0-0.1,0.1-0.2,0.1c-0.1,0-0.1,0.1-0.2,0.1h-0.1c-0.1,0-0.2,0-0.4-0.1
		c-0.1-0.1-0.2-0.2-0.2-0.3c0,0,0-0.1,0-0.1c0,0,0-0.1,0-0.1c0,0,0-0.1,0-0.2c0.1-0.1,0.2-0.1,0.3-0.2c0.1,0,0.2-0.1,0.3-0.1
		c0.1,0,0.2,0,0.3,0.1C92.3,75.2,92.4,75.4,92.5,75.7L92.5,75.7z M92.6,78v0.2c-0.1,0.1-0.2,0.1-0.3,0.2c-0.1,0-0.2,0.1-0.3,0.1
		c-0.1,0-0.2-0.1-0.3-0.2c-0.1-0.1-0.1-0.2-0.1-0.3c0-0.1,0-0.2,0.1-0.2c0.1-0.1,0.1-0.1,0.1-0.2l0-0.1c0,0,0.1,0,0.2,0
		c0,0,0.1,0,0.1,0c0,0,0.1,0,0.1,0c0.1,0,0.2,0,0.2,0.1c0.1,0,0.2,0.1,0.2,0.1C92.6,77.6,92.6,78,92.6,78z M90.5,77.3v0.2
		c-0.1,0.2-0.3,0.3-0.6,0.3h-0.1c-0.1-0.1-0.2-0.1-0.2-0.2c-0.1-0.1-0.1-0.2-0.1-0.3c0-0.1,0-0.2,0.1-0.2l0-0.2h0.2c0,0,0.1,0,0.1,0
		c0,0,0.1,0,0.1,0c0.1,0,0.2,0,0.3,0.2C90.5,77.1,90.5,77.2,90.5,77.3L90.5,77.3z M92.6,80.2c0,0.2,0,0.3-0.1,0.4
		c0,0.1-0.1,0.2-0.2,0.3l-0.1-0.1c0,0-0.1,0-0.1,0c0,0-0.1,0-0.1,0c-0.1,0-0.2-0.1-0.3-0.2c-0.1-0.1-0.1-0.2-0.2-0.3
		c0,0,0.1-0.1,0.1-0.1c0,0,0-0.1-0.1-0.2c0.1-0.1,0.2-0.1,0.2-0.1c0,0,0-0.1,0.1-0.1c0.1,0,0.1,0,0.2,0c0,0,0.1,0,0.2,0
		c0.1,0,0.2,0,0.2,0s0.1,0.1,0.1,0.1c0,0,0,0.1,0.1,0.1C92.5,80.1,92.6,80.2,92.6,80.2z M92.6,82.8c0,0.1,0,0.2-0.1,0.3
		c-0.1,0.1-0.1,0.1-0.2,0.2c-0.1,0-0.1,0-0.2,0c0,0-0.1,0-0.1,0h-0.2c0,0-0.1-0.1-0.2-0.1c-0.1-0.1-0.1-0.1-0.1-0.2c0,0,0-0.1,0-0.2
		c0,0,0,0,0-0.1c0,0,0,0,0-0.1c0,0,0-0.1,0-0.1c0.1,0,0.2-0.1,0.2-0.1c0.1,0,0.2-0.1,0.3-0.1c0.1,0,0.2,0.1,0.3,0.1
		C92.5,82.6,92.6,82.7,92.6,82.8z M88.8,79.9c0,0.1-0.1,0.2-0.2,0.3c-0.2,0.1-0.3,0.1-0.3,0.1c-0.1,0-0.1,0-0.2,0c0,0-0.1,0-0.1,0
		c0-0.1-0.1-0.2-0.1-0.2c-0.1,0-0.1-0.1-0.1-0.2c0-0.1,0-0.2,0.1-0.2c0-0.1,0.1-0.1,0.1-0.2l0.1,0c0,0,0.1,0,0.1,0c0,0,0.1,0,0.1,0
		c0.1,0,0.3,0.1,0.4,0.1C88.8,79.6,88.8,79.7,88.8,79.9L88.8,79.9z M94.9,87.7c-0.1,0.1-0.2,0.1-0.3,0.2c-0.1,0.1-0.2,0.1-0.3,0.1
		c-0.1,0-0.3-0.1-0.4-0.2c0-0.1,0-0.1,0-0.2c0-0.1,0-0.1,0-0.2c0-0.1,0.1-0.2,0.2-0.3c0.1-0.1,0.2-0.2,0.3-0.2c0.1,0,0.2,0,0.3,0.1
		c0.1,0.1,0.2,0.2,0.3,0.3c0,0,0,0.1,0,0.1c0,0,0,0.1,0,0.1L94.9,87.7L94.9,87.7z M92.6,85.2c0,0,0,0.1,0,0.2
		c-0.2,0.2-0.4,0.3-0.6,0.3c-0.1,0-0.1-0.1-0.2-0.1c-0.1,0-0.1-0.1-0.2-0.2v-0.3c0-0.2,0-0.2,0.1-0.3c0.1,0,0.1-0.1,0.2-0.2H92
		c0.1,0,0.1,0,0.2,0c0.1,0,0.1,0.1,0.2,0.1c0,0.1,0.1,0.1,0.1,0.2C92.6,85.1,92.6,85.2,92.6,85.2L92.6,85.2z M87.3,82
		c0,0.1,0,0.2,0,0.2c0,0.1,0,0.1-0.1,0.2c-0.1,0-0.2,0.1-0.3,0.2c-0.1,0.1-0.2,0.1-0.3,0.1c-0.1,0-0.1,0-0.2-0.1
		c-0.1,0-0.1-0.1-0.1-0.1h-0.1c0-0.1,0-0.2,0-0.4c0-0.1,0.1-0.3,0.1-0.4c0.1,0,0.2,0,0.2,0c0.1,0,0.1,0,0.2,0c0.1,0,0.1,0,0.2,0
		c0,0.1,0.1,0.2,0.1,0.2C87.1,82,87.2,82,87.3,82z M92.5,87.6c0,0.1,0,0.2,0,0.2c0,0-0.1,0.1-0.1,0.2c-0.1,0-0.1,0-0.2,0
		c-0.1,0-0.1,0-0.2,0c0,0-0.1,0-0.1,0c0,0-0.1,0-0.1,0c0-0.1-0.1-0.1-0.2-0.2c-0.1,0-0.1-0.1-0.2-0.1c0,0,0-0.1,0-0.1
		c0,0,0-0.1,0-0.1c0,0,0-0.1,0-0.1c0,0,0,0,0-0.1l0.5-0.3c0.2,0,0.4,0.1,0.6,0.1C92.5,87.4,92.5,87.5,92.5,87.6L92.5,87.6z
		 M90.5,87.4c0,0.1,0,0.2,0,0.2c0,0.1,0,0.2-0.1,0.2C90.2,87.9,90.1,88,90,88c-0.1,0-0.2,0-0.3-0.1c-0.1,0-0.2-0.1-0.2-0.2
		c0-0.2,0.1-0.5,0.2-0.6c0.1,0,0.2,0,0.3,0C90.1,87,90.4,87.1,90.5,87.4z M92.6,90.1v0.2c-0.1,0.1-0.2,0.2-0.3,0.2
		c-0.1,0-0.2,0-0.3,0.1c-0.1,0-0.1-0.1-0.2-0.1c0,0-0.1-0.1-0.2-0.1V90c0-0.1,0-0.2,0.1-0.3c0.1,0,0.1-0.1,0.2-0.1
		c0.1,0,0.2-0.1,0.2-0.1c0.1,0,0.2,0,0.2,0.1c0.1,0,0.1,0.1,0.2,0.2L92.6,90.1L92.6,90.1z M85.6,84.7c0,0.2-0.1,0.3-0.2,0.3
		c-0.1,0.1-0.3,0.1-0.4,0.1c-0.1,0-0.2,0-0.3-0.1c0-0.1-0.1-0.1-0.1-0.2c0-0.1,0-0.1,0-0.2c0-0.2,0-0.2,0.1-0.3
		c0.1,0,0.1-0.1,0.1-0.2h0.2c0.1,0,0.2,0,0.3,0c0.1,0,0.2,0.1,0.2,0.1c0,0.1,0.1,0.1,0.1,0.2C85.5,84.6,85.6,84.6,85.6,84.7z
		 M88.2,87.3c0,0.2-0.1,0.4-0.1,0.5C88,87.9,87.9,88,87.7,88c-0.1,0-0.2,0-0.3-0.1c-0.1-0.1-0.1-0.2-0.2-0.3c0,0,0-0.1,0-0.1
		c0-0.1,0-0.1,0-0.2c0-0.1,0.1-0.2,0.2-0.2c0.1-0.1,0.2-0.1,0.3-0.1c0.1,0,0.2,0,0.3,0.1C88,87.2,88.1,87.2,88.2,87.3L88.2,87.3z
		 M92.6,92.7c-0.1,0.1-0.1,0.1-0.2,0.2c-0.1,0.1-0.2,0.1-0.3,0.1c-0.2,0-0.3-0.1-0.4-0.2c-0.1-0.1-0.2-0.2-0.2-0.4
		c0.1-0.1,0.2-0.2,0.2-0.3c0.1-0.1,0.2-0.2,0.3-0.2c0.2,0,0.4,0.1,0.5,0.2C92.5,92.3,92.5,92.5,92.6,92.7L92.6,92.7z M86.1,87.4
		c0,0.2-0.1,0.3-0.2,0.4c-0.1,0.1-0.3,0.1-0.4,0.1c-0.1,0-0.1,0-0.2-0.1c-0.1,0-0.1-0.1-0.2-0.1c0-0.1,0-0.2,0-0.2
		c0-0.1,0-0.2,0-0.2l0.3-0.3c0,0,0.1,0,0.1,0c0,0,0.1,0,0.1,0c0,0,0.1,0,0.1-0.1c0,0,0.1-0.1,0.1-0.1c0,0.1,0.1,0.1,0.1,0.2
		c0,0.1,0.1,0.1,0.1,0.2C86,87.3,86.1,87.4,86.1,87.4L86.1,87.4z M83.8,87.6c-0.1,0.1-0.2,0.2-0.2,0.3c-0.1,0.1-0.2,0.1-0.3,0.1
		c-0.1,0-0.2,0-0.4-0.1c-0.1-0.1-0.2-0.2-0.2-0.3c0-0.1,0.1-0.2,0.1-0.4C82.9,87,83,87,83.2,87c0.1,0,0.2,0.1,0.3,0.1
		c0.1,0,0.2,0.1,0.2,0.2v0.1c0,0,0,0,0,0.1C83.8,87.5,83.8,87.6,83.8,87.6z M125.2,82.7c0,0.1,0,0.1,0,0.2c0,0.1-0.1,0.1-0.1,0.2
		c-0.1,0-0.1,0.1-0.2,0.1c0,0-0.1,0.1-0.2,0.1c-0.1,0-0.3-0.1-0.4-0.1c-0.1,0-0.2-0.2-0.2-0.3c0-0.1,0-0.1,0-0.2c0,0,0-0.1,0-0.2
		c0.1-0.1,0.2-0.1,0.2-0.2c0.1,0,0.2-0.1,0.3-0.1c0.1,0,0.2,0,0.2,0c0.1,0,0.2,0,0.2,0c0,0.1,0,0.1,0,0.2
		C125.2,82.5,125.2,82.6,125.2,82.7L125.2,82.7z M123.4,82.7c0,0.2-0.1,0.3-0.2,0.4c-0.1,0.1-0.3,0.2-0.4,0.2c0,0-0.1-0.1-0.1-0.1
		c0,0-0.1,0-0.1,0l-0.3-0.3c0-0.1,0.1-0.1,0.1-0.2c0-0.1,0.1-0.1,0.1-0.2c0.2-0.1,0.3-0.1,0.5-0.1h0.2c0,0.1,0.1,0.1,0.1,0.2
		C123.3,82.6,123.4,82.6,123.4,82.7L123.4,82.7z M121.7,82.7c0,0.1-0.1,0.2-0.2,0.4c-0.1,0.1-0.2,0.2-0.4,0.2c-0.1,0-0.1,0-0.2-0.1
		c0,0-0.1-0.1-0.2-0.1l-0.2-0.4c0-0.1,0.1-0.2,0.1-0.3c0.1,0,0.1-0.1,0.2-0.1c0.1,0,0.2,0,0.2-0.1c0.1,0.1,0.2,0.1,0.3,0.2
		C121.5,82.6,121.6,82.6,121.7,82.7L121.7,82.7z M125.1,87c-0.1,0-0.1,0.1-0.2,0.1c0,0-0.1,0.1-0.2,0.1c-0.1,0-0.3-0.1-0.4-0.1
		c-0.1,0-0.2-0.1-0.2-0.3c0-0.1,0-0.1,0-0.2c0,0,0-0.1,0-0.2c0.1-0.1,0.2-0.1,0.2-0.2c0.1,0,0.2-0.1,0.3-0.1c0.1,0,0.1,0,0.1,0
		c0.2,0,0.3,0,0.3,0.1c0,0.1,0.1,0.1,0.1,0.2c0,0,0,0.1,0,0.2C125.1,86.9,125.1,86.9,125.1,87L125.1,87z M120,82.7
		c0,0.2-0.1,0.3-0.2,0.4c-0.1,0.1-0.3,0.1-0.5,0.1c-0.1,0-0.2,0-0.3-0.1c-0.1-0.1-0.2-0.2-0.2-0.3c0-0.1,0.1-0.3,0.2-0.4
		c0.1-0.1,0.2-0.2,0.3-0.2c0.1,0,0.2,0,0.2,0c0.1,0,0.2,0.1,0.2,0.1c0,0.1,0.1,0.1,0.1,0.2C119.9,82.6,120,82.7,120,82.7L120,82.7z
		 M123.4,86.6c0,0.1-0.1,0.3-0.2,0.4c-0.1,0.1-0.2,0.2-0.4,0.2c-0.1,0-0.1,0-0.2,0c0,0-0.1,0-0.2,0l-0.3-0.3c0-0.1,0.1-0.1,0.1-0.2
		c0-0.1,0.1-0.1,0.1-0.2c0.2-0.1,0.3-0.1,0.5-0.1h0.2c0,0.1,0.1,0.1,0.2,0.2C123.4,86.4,123.4,86.5,123.4,86.6L123.4,86.6z
		 M118.2,82.7c0,0.1,0,0.2,0,0.2c0,0-0.1,0.1-0.1,0.2c-0.1,0-0.1,0.1-0.1,0.1c0,0-0.1,0.1-0.2,0.1c-0.1,0-0.3-0.1-0.4-0.1
		c-0.1-0.1-0.2-0.2-0.2-0.3c0-0.1,0-0.1,0-0.2c0,0,0-0.1,0-0.2c0.2-0.2,0.3-0.2,0.5-0.2c0.1,0,0.2,0,0.2,0c0.1,0,0.2,0,0.2,0
		c0,0.1,0,0.1,0,0.2C118.2,82.6,118.2,82.6,118.2,82.7L118.2,82.7z M121.7,86.6c0,0.1-0.1,0.2-0.1,0.2c0,0-0.1,0.1-0.1,0.1
		c0,0-0.1,0-0.1,0c0,0-0.1,0.1-0.1,0.1c-0.1,0-0.1,0-0.2,0c-0.1,0-0.1,0-0.2-0.1c-0.1,0-0.1-0.1-0.2-0.1l-0.2-0.4
		c0-0.1,0.1-0.2,0.1-0.3c0-0.1,0-0.1,0.1-0.1c0.1,0,0.2,0,0.2,0c0,0,0.1,0,0.1-0.1c0.1,0.1,0.2,0.1,0.3,0.2
		C121.5,86.5,121.6,86.5,121.7,86.6L121.7,86.6z M120,86.6c0,0.1,0,0.2-0.1,0.2c0,0.1-0.1,0.1-0.2,0.2c-0.1,0-0.1,0.1-0.2,0.1
		c-0.1,0-0.1,0-0.2,0c-0.1,0-0.2,0-0.3-0.1c-0.1-0.1-0.2-0.2-0.2-0.3c0-0.1,0-0.2,0-0.2c0,0,0.1-0.1,0.1-0.2c0,0,0.1-0.1,0.1-0.1
		c0.1,0,0.1-0.1,0.2-0.1c0.1,0,0.2,0,0.2,0c0.1,0,0.2,0.1,0.2,0.1c0,0.1,0.1,0.1,0.1,0.2C119.9,86.5,120,86.5,120,86.6L120,86.6z
		 M118.2,86.5c0,0.1,0,0.2-0.1,0.2c0,0.1-0.1,0.1-0.1,0.2c-0.1,0-0.1,0.1-0.2,0.1c0,0-0.1,0.1-0.2,0.1c-0.1,0-0.2-0.1-0.4-0.1
		c-0.2-0.1-0.2-0.2-0.2-0.3c0-0.1,0-0.1,0-0.2c0,0,0-0.1,0-0.2c0.1-0.2,0.3-0.2,0.5-0.2c0.1,0,0.1,0,0.1,0c0.1,0,0.1,0,0.2,0.1
		c0,0.1,0.1,0.1,0.1,0c0,0,0,0.1,0.1,0.1C118.2,86.5,118.2,86.5,118.2,86.5L118.2,86.5z M24,110.2L24,110.2c0,0.1-0.1,0.2-0.1,0.2
		c0,0,0,0.1,0,0.1c-0.1,0.1-0.1,0.1-0.2,0.1c-0.1,0-0.1,0-0.2,0c-0.1,0-0.2,0-0.2-0.1c0-0.1-0.1-0.1-0.2,0c0-0.1,0-0.1,0-0.2
		c0-0.1,0-0.1,0-0.2c0-0.1,0-0.2,0.1-0.3c0.1-0.1,0.2-0.1,0.3-0.1c0.1,0,0.3,0,0.4,0.1C23.9,109.9,24,110,24,110.2L24,110.2z
		 M22.2,108.8c0,0.1,0,0.1,0,0.2c0,0-0.1,0.1-0.1,0.1c-0.1,0-0.2,0.1-0.4,0.1c-0.1,0-0.2,0-0.2-0.1c-0.1,0-0.2-0.1-0.2-0.1v-0.3
		c0-0.3,0.1-0.4,0.4-0.4c0,0,0.1,0,0.1,0c0.1,0,0.1,0,0.2,0c0,0.1,0.1,0.2,0.1,0.2C22.2,108.6,22.2,108.7,22.2,108.8L22.2,108.8z
		 M25,112.6c-0.1,0.2-0.2,0.3-0.2,0.4c0,0.1-0.2,0.1-0.4,0.1c-0.1,0-0.1,0-0.2,0c0,0-0.1,0-0.2,0c0-0.1-0.1-0.1-0.1-0.2
		c0-0.1,0-0.1,0-0.2c0,0,0,0,0-0.1c0,0,0-0.1,0-0.1l0-0.1l0.1-0.1c0,0,0.1,0,0.1,0c0,0,0.1,0,0.1,0c0,0,0.1,0,0.1,0
		c0.1,0,0.1,0,0.2,0c0.1,0,0.1,0,0.2,0c0,0.1,0,0.1,0.1,0.2C24.9,112.5,25,112.5,25,112.6L25,112.6z M19.9,108.9c0,0.1,0,0.2,0,0.3
		c-0.1,0-0.1,0-0.2,0c0,0-0.1,0-0.2,0.1c-0.1,0-0.2-0.1-0.3-0.1c-0.1,0-0.2-0.1-0.3-0.1v-0.3v-0.1c0,0,0.1-0.1,0.1-0.2
		c0-0.1,0.1-0.1,0.1-0.1c0.1,0,0.2,0,0.2,0c0.1,0,0.1,0,0.1,0c0,0,0.1,0,0.1,0.1c0,0,0.1,0.1,0.2,0.1
		C19.9,108.7,19.9,108.8,19.9,108.9L19.9,108.9z M24.7,115.4c0,0.1,0,0.2-0.1,0.3c-0.1,0.1-0.1,0.1-0.3,0.1c-0.1,0-0.2,0-0.2,0
		c-0.1,0-0.2,0-0.2-0.1c-0.1,0-0.1-0.1-0.2-0.2v-0.2c0-0.1,0-0.1,0-0.2c0-0.1,0-0.1,0-0.2c0.1,0,0.1-0.1,0.2-0.1
		c0.1,0,0.1-0.1,0.2-0.1c0.1,0,0.2,0,0.3,0.1c0.1,0.1,0.2,0.2,0.2,0.2V115.4L24.7,115.4z M17.8,109.8c0,0.1,0,0.2-0.1,0.3
		c-0.1,0.1-0.1,0.1-0.2,0.2c-0.1-0.1-0.2-0.1-0.3-0.1c-0.1,0-0.2-0.1-0.3-0.2v-0.1c0,0,0-0.1,0-0.1c0,0,0-0.1,0-0.1
		c0-0.2,0.1-0.3,0.2-0.3c0.1-0.1,0.2-0.1,0.4-0.1c0.1,0,0.1,0,0.2,0c0.1,0.1,0.1,0.2,0.2,0.2C17.7,109.7,17.8,109.7,17.8,109.8z
		 M23.5,117.8c0,0.1,0,0.2-0.1,0.3c-0.1,0.1-0.1,0.2-0.2,0.2H23c-0.1,0-0.2,0-0.3-0.1c0-0.1-0.1-0.2-0.1-0.2c0-0.1-0.1-0.1-0.1-0.2
		c0,0,0-0.1,0-0.1c0,0,0.1-0.1,0.1-0.2c0-0.1,0.1-0.1,0.2-0.1H23c0,0,0.1,0,0.1,0c0,0,0.1,0,0.1,0c0.1,0.1,0.1,0.1,0.2,0.2
		C23.5,117.7,23.5,117.7,23.5,117.8z M16,111.6c0,0.1-0.1,0.2-0.2,0.2c-0.1,0.1-0.2,0.1-0.3,0.1c0,0-0.1,0-0.1,0c0,0,0,0-0.1,0
		c-0.1-0.1-0.1-0.1-0.1-0.1c0,0-0.1,0-0.2,0c0,0,0-0.1,0-0.2c0,0,0-0.1,0-0.1c0,0-0.1-0.1-0.1-0.1c0.1,0,0.1-0.1,0.2-0.1
		c0,0,0.1-0.1,0.2-0.1c0.1,0,0.2-0.1,0.3-0.1c0,0,0.1,0,0.2,0l0.2,0.2C16,111.3,16,111.6,16,111.6z M21.9,119.8c0,0.1,0,0.2-0.1,0.3
		c-0.1,0.1-0.1,0.2-0.2,0.2h-0.2c0,0-0.1,0-0.1,0c0,0-0.1,0-0.1,0c-0.1,0-0.2,0-0.2-0.1c0-0.1-0.1-0.1-0.2-0.2c0,0,0-0.1,0-0.2
		c0-0.1,0-0.1,0-0.2c0,0,0-0.1,0-0.2c0.1,0,0.2-0.1,0.2-0.1c0.1,0,0.2-0.1,0.3-0.1c0.1,0,0.2,0,0.3,0.1c0,0,0.1,0.1,0.1,0.2
		C21.9,119.7,21.9,119.8,21.9,119.8L21.9,119.8z M25.3,125.8c0,0-0.1,0.1-0.1,0.1c0,0-0.1,0.1-0.1,0.1c-0.1,0-0.2,0.1-0.3,0l-0.1,0
		c-0.1-0.1-0.1-0.1-0.1-0.1c0,0-0.1-0.1-0.2-0.1v-0.2c0-0.2,0-0.3,0.1-0.4c0.1-0.1,0.2-0.2,0.4-0.2c0,0,0.1,0,0.2,0
		c0.1,0.1,0.2,0.2,0.2,0.3C25.2,125.5,25.3,125.6,25.3,125.8L25.3,125.8z M20.1,121.8c0,0.1-0.1,0.2-0.1,0.3
		c-0.1,0.1-0.2,0.1-0.3,0.1c-0.4,0-0.6-0.2-0.6-0.6c0-0.1,0-0.1,0.1-0.2c0.1,0,0.1-0.1,0.2-0.1c0.1,0,0.1-0.1,0.2-0.1
		c0.1,0,0.1,0,0.2,0c0,0,0.1,0,0.1-0.1c0.1,0.1,0.1,0.2,0.2,0.3C20,121.6,20,121.7,20.1,121.8L20.1,121.8z M23.1,125.6
		c-0.1,0.1-0.1,0.2-0.2,0.3c0,0-0.1,0.1-0.2,0.2c-0.1-0.1-0.3-0.1-0.4-0.2c-0.1-0.1-0.2-0.2-0.2-0.3c0-0.2,0.1-0.3,0.2-0.4
		c0.1-0.1,0.3-0.1,0.4-0.1c0.1,0,0.1,0,0.2,0c0.1,0,0.1,0,0.2,0v0.2c0,0,0,0.1,0,0.1C23.1,125.5,23.1,125.6,23.1,125.6z M20.8,125.5
		c0,0.1-0.1,0.2-0.2,0.4c-0.1,0.1-0.2,0.2-0.3,0.1c-0.1,0-0.2,0.1-0.3,0.1c-0.1,0-0.1,0-0.1-0.1c-0.1-0.1-0.2-0.2-0.2-0.3
		c0-0.1,0-0.2,0.1-0.3c0.1-0.1,0.1-0.2,0.2-0.3l0.4,0.1C20.5,125.4,20.6,125.5,20.8,125.5z M18.1,123.6c0,0.1,0,0.2-0.2,0.3
		c-0.1,0.1-0.2,0.1-0.4,0.1h-0.2c-0.1,0-0.1-0.1-0.2-0.1c0,0-0.1-0.1-0.1-0.2c0-0.1,0-0.2,0.1-0.3c0.1-0.1,0.1-0.2,0.2-0.3l0.1,0.1
		c0,0,0.1,0,0.1,0c0,0,0.1,0,0.1,0c0.1,0,0.1,0,0.2,0.1c0.1,0.1,0.1,0.1,0.2,0.2V123.6L18.1,123.6z M18.4,125.7
		c-0.1,0.1-0.1,0.1-0.2,0.2c-0.1,0.1-0.1,0.2-0.2,0.2c-0.2,0-0.3-0.1-0.3-0.1c0,0-0.1-0.1-0.3-0.2c0-0.1,0-0.2,0.1-0.3
		c0-0.1,0.1-0.2,0.2-0.3c0.1,0,0.1,0,0.2,0c0.1,0,0.1,0,0.2,0c0.1,0.1,0.2,0.2,0.2,0.2C18.3,125.4,18.4,125.5,18.4,125.7L18.4,125.7
		z M16,125.4c0,0.1,0,0.2,0,0.3c0,0.1-0.1,0.2-0.1,0.3c-0.2,0.1-0.3,0.1-0.4,0.1c-0.1,0-0.1,0-0.2-0.1c-0.1,0-0.1-0.1-0.2-0.1
		c0-0.1,0-0.2,0-0.3c0-0.1,0-0.2,0.1-0.3c0.1-0.1,0.2-0.2,0.3-0.2c0.1,0,0.1,0,0.2,0c0.1,0,0.1,0,0.2,0c0,0.1,0.1,0.1,0.1,0.1
		C15.9,125.3,16,125.4,16,125.4L16,125.4z"/>
	<path class="st0" d="M60.3,109.3c-0.1,0-0.2,0.1-0.2,0.1c0,0-0.1,0.1-0.2,0.1c0,0-0.1,0-0.1,0c0,0-0.1,0-0.1,0l-0.1,0
		c-0.1,0-0.2-0.1-0.3-0.2c0-0.1-0.1-0.2-0.1-0.3c0-0.1,0.1-0.1,0.1-0.2c0,0,0.1-0.1,0.2-0.2c0,0,0.1,0,0.2,0c0.1,0,0.1,0,0.2,0
		c0.1,0,0.1,0,0.2,0c0,0.1,0.1,0.2,0.1,0.3C60.2,109,60.3,109.2,60.3,109.3L60.3,109.3z M59.1,111c0,0.1-0.1,0.2-0.2,0.3
		c-0.1,0.1-0.2,0.1-0.4,0.1c-0.1,0-0.1,0-0.2,0c-0.1,0-0.1-0.1-0.2-0.1c0-0.1-0.1-0.1-0.1-0.2c0-0.1,0-0.1,0-0.1c0,0,0-0.1,0-0.1
		c0,0,0-0.1,0.1-0.1c0.1-0.1,0.1-0.2,0.2-0.3c0.2,0,0.4,0,0.6,0.1c0,0.1,0.1,0.2,0.1,0.2C59.1,110.8,59.1,110.9,59.1,111L59.1,111z
		 M57.6,113.2c0,0.1-0.1,0.1-0.1,0.2c0,0.1-0.1,0.1-0.1,0.2c-0.1,0.1-0.3,0.2-0.3,0.2c-0.2,0-0.3,0-0.3-0.1c0-0.1-0.1-0.2-0.2-0.3
		v-0.1c0-0.1,0-0.2,0.1-0.2c0,0,0.1-0.1,0.1-0.1c0.1,0,0.1-0.1,0.1-0.1c0,0,0.1,0,0.1,0l0.1,0c0,0,0.1,0.1,0.1,0.1
		c0.1,0,0.1,0.1,0.1,0.1c0.1,0.1,0.1,0.1,0.1,0.2C57.4,113.1,57.5,113.1,57.6,113.2L57.6,113.2z M56.1,115.2c0,0.1,0,0.2,0,0.3
		c0,0.1-0.1,0.1-0.2,0.2h-0.2c-0.1,0-0.2,0-0.3-0.1c-0.1,0-0.1-0.1-0.2-0.1c0,0,0-0.1,0-0.2c0-0.1,0-0.1,0-0.2c0-0.1,0-0.1,0.1-0.2
		c0,0,0.1-0.1,0.1-0.2c0.1,0,0.1,0,0.2,0c0.1,0,0.1,0,0.2,0c0.1,0,0.2,0.1,0.3,0.2C56.1,115,56.1,115.1,56.1,115.2L56.1,115.2z
		 M49.2,109.1c0,0,0,0.1,0,0.1c0,0,0,0.1,0,0.1c-0.1,0-0.2,0.1-0.2,0.1c-0.1,0-0.2,0-0.3,0h-0.3c0,0-0.1-0.1-0.1-0.1
		c0-0.1-0.1-0.1-0.1-0.2c0-0.1,0-0.2,0.1-0.3c0-0.1,0.1-0.2,0.2-0.3c0,0,0.1,0,0.1,0c0,0,0.1,0,0.1,0c0.1,0,0.2,0.1,0.4,0.2
		C49.1,108.9,49.2,109,49.2,109.1L49.2,109.1z M50.6,111.2c-0.1,0.1-0.1,0.2-0.2,0.4c0,0.1-0.1,0.2-0.3,0.2c-0.2,0-0.3-0.1-0.4-0.2
		c-0.1-0.1-0.1-0.2-0.1-0.4c0-0.1,0-0.2,0.1-0.2c0.1,0,0.1-0.1,0.2-0.1c0.1,0,0.1-0.1,0.2-0.1c0.1,0,0.1,0.1,0.2,0.1
		c0,0.1,0.1,0.1,0.2,0.1L50.6,111.2L50.6,111.2z M52,113.2c0,0.1,0,0.1,0,0.2c0,0,0,0.1-0.1,0.2c0,0,0,0.1,0,0.1c0,0,0,0.1,0,0.1
		c-0.2,0.1-0.4,0.1-0.5,0.1c-0.1,0-0.2,0-0.3,0c-0.1,0-0.2-0.1-0.3-0.1v-0.2c0,0,0-0.1,0-0.2c0-0.1,0-0.1,0-0.1
		c0.1-0.1,0.1-0.1,0.2-0.2c0.1,0,0.1-0.1,0.1-0.2c0.2,0.1,0.3,0.1,0.3,0.1c0.1,0,0.2,0.1,0.3,0.2C51.9,113.2,51.9,113.2,52,113.2z
		 M53.3,115.4c0,0.1-0.1,0.2-0.2,0.3c-0.1,0.1-0.2,0.1-0.3,0.1c-0.1,0-0.1,0-0.2,0c0,0-0.1,0-0.2,0c-0.1-0.1-0.1-0.1-0.1-0.2
		c0-0.1-0.1-0.1-0.1-0.2c0-0.1,0.1-0.2,0.1-0.3c0-0.1,0.1-0.1,0.3-0.2c0.1,0,0.3,0,0.4,0.1C53.2,115.1,53.3,115.2,53.3,115.4
		L53.3,115.4z M54.8,117.3c0,0.1,0,0.2-0.1,0.3c-0.1,0-0.1,0.1-0.2,0.1c-0.1,0-0.1,0-0.2,0c-0.1,0-0.2-0.1-0.3-0.2
		c-0.1-0.1-0.2-0.2-0.2-0.3c0.1-0.1,0.1-0.2,0.2-0.3c0-0.1,0.1-0.2,0.2-0.3c0.1,0,0.1,0,0.2,0c0.1,0,0.2,0.1,0.3,0.2
		C54.7,117.1,54.8,117.2,54.8,117.3L54.8,117.3z M56.2,119.3c0,0.1,0,0.1,0,0.2c0,0.1-0.1,0.1-0.1,0.2c-0.2,0.1-0.3,0.1-0.3,0.1
		c-0.1,0-0.2,0-0.3-0.1c-0.1,0-0.1-0.1-0.2-0.2v-0.1c0-0.1,0-0.1,0-0.2c0-0.1-0.1-0.1-0.1-0.2c0.1,0,0.2-0.1,0.3-0.1
		c0.1,0,0.2-0.1,0.3-0.1c0.1,0,0.1,0,0.2,0.1c0.1,0.1,0.1,0.1,0.2,0.2C56.2,119.1,56.2,119.2,56.2,119.3L56.2,119.3z M57.7,121.5
		c-0.1,0.2-0.2,0.3-0.2,0.3c-0.1,0.1-0.2,0.1-0.4,0.1c-0.1,0-0.2,0-0.2,0c0,0-0.1-0.1-0.2-0.1c0-0.1,0-0.2-0.1-0.3
		c0-0.1,0.1-0.1,0.1-0.2c0-0.1,0.1-0.1,0.2-0.2H57c0.1,0,0.2,0,0.2,0c0.1,0,0.1,0,0.2,0.1c0.1,0,0.1,0.1,0.2,0.1
		c0,0.1,0,0.1,0.1,0.2C57.7,121.3,57.7,121.4,57.7,121.5L57.7,121.5z M59.2,123.4c0,0.1,0,0.2-0.1,0.3c-0.1,0.1-0.2,0.2-0.3,0.2
		c-0.1,0-0.2,0-0.3-0.1c-0.1-0.1-0.2-0.1-0.2-0.2c0,0,0-0.1,0-0.1c0,0,0-0.1,0-0.1v-0.1c0.2-0.2,0.3-0.2,0.5-0.2c0,0,0.1,0,0.1,0
		c0,0,0.1,0,0.1,0c0,0,0.1,0.1,0.1,0.1c0,0,0.1,0.1,0.1,0.1L59.2,123.4L59.2,123.4z M60.7,125.6c0,0.1-0.1,0.1-0.1,0.2
		c0,0.1-0.1,0.1-0.1,0.2c-0.1,0-0.1,0-0.2,0c-0.1,0-0.1,0-0.2,0c-0.1-0.1-0.2-0.1-0.3-0.2c-0.1-0.1-0.1-0.2-0.1-0.3
		c0-0.1,0-0.2,0.1-0.3l0.5-0.2C60.4,125.1,60.6,125.3,60.7,125.6L60.7,125.6z M53.4,119.3c-0.1,0.1-0.1,0.1-0.1,0.1
		c0,0,0,0.1-0.1,0.2c-0.1,0.1-0.2,0.1-0.3,0.1c-0.2,0-0.4-0.1-0.6-0.3v-0.2c0-0.1,0-0.2,0-0.3c0.1,0,0.2-0.1,0.2-0.1
		c0-0.1,0.1-0.1,0.3-0.1c0.2,0,0.3,0.1,0.5,0.2v0.1c0,0.1,0.1,0.1,0.1,0.1C53.4,119.2,53.4,119.2,53.4,119.3L53.4,119.3z
		 M51.9,121.5c-0.1,0.1-0.2,0.1-0.3,0.2c-0.1,0.1-0.2,0.1-0.3,0.1c0,0-0.1,0-0.1,0c0,0-0.1,0-0.1,0c0-0.1-0.1-0.1-0.1-0.2
		c0,0-0.1,0-0.1,0c0,0-0.1,0-0.1,0c0.1-0.1,0.1-0.1,0.1-0.2c0,0,0-0.1,0.1-0.1c0,0,0-0.1,0-0.1c0,0,0-0.1,0-0.2
		c0.1,0,0.2-0.1,0.2-0.1c0.1,0,0.2-0.1,0.3-0.1c0.1,0,0.2,0.1,0.2,0.2c0.1,0.1,0.1,0.1,0.2,0.2v0.1c0,0,0,0.1,0,0.1
		C51.9,121.4,51.9,121.4,51.9,121.5L51.9,121.5z M50.4,123.2c0,0.1,0,0.1-0.1,0.1c0,0,0,0.1,0,0.1c-0.1,0.1-0.3,0.2-0.4,0.2
		c-0.1,0-0.2-0.1-0.3-0.1c-0.1,0-0.2-0.1-0.3-0.2v-0.2c0-0.4,0.2-0.5,0.5-0.5c0.1,0,0.2,0,0.3,0c0,0.1,0.1,0.2,0.1,0.2
		C50.4,123,50.4,123.1,50.4,123.2L50.4,123.2z M48.9,125.6c-0.1,0.1-0.1,0.2-0.2,0.3c-0.1,0.1-0.2,0.2-0.3,0.2c-0.1,0-0.1,0-0.2,0
		c-0.1,0-0.1,0-0.2,0c0-0.1-0.1-0.2-0.1-0.2c0-0.1-0.1-0.2-0.1-0.2c0-0.1,0-0.1,0-0.2c0-0.1,0-0.1,0-0.2c0.1,0,0.1,0,0.2-0.1
		c0.1,0,0.1,0,0.2,0c0.1,0,0.1,0,0.2,0.1c0.1,0,0.1,0.1,0.2,0.1c0,0.1,0.1,0.1,0.1,0.2C48.8,125.5,48.9,125.5,48.9,125.6L48.9,125.6
		z M92.2,109.2c0,0,0,0.1,0,0.1c0,0,0,0.1-0.1,0.1c-0.1,0-0.2,0.1-0.3,0.1c-0.1,0-0.2,0-0.3,0.1c-0.1,0-0.1-0.1-0.2-0.1
		c0,0,0,0-0.1,0c0,0-0.1,0-0.1,0c0,0,0,0,0-0.1v-0.1c0-0.1,0-0.2,0.1-0.3c0-0.1,0.1-0.1,0.2-0.2h0.3c0,0,0.1,0,0.2,0
		c0.1,0.1,0.2,0.2,0.2,0.3C92.2,109,92.2,109.1,92.2,109.2L92.2,109.2z M89.9,109.2c0,0,0,0.1,0,0.2c-0.1,0-0.1,0.1-0.2,0.1
		c-0.1,0.1-0.2,0.1-0.2,0.1h-0.1c-0.1-0.1-0.2-0.1-0.3-0.2c-0.1-0.1-0.1-0.2-0.1-0.3c0,0,0-0.1,0-0.1c0,0,0-0.1,0-0.1
		c0,0,0.1-0.1,0.2-0.1c0.1,0,0.1-0.1,0.2-0.2c0.1,0,0.2,0,0.3,0c0.1,0,0.2,0,0.3,0c0,0.1,0,0.2,0.1,0.3
		C89.8,109,89.9,109.1,89.9,109.2L89.9,109.2z M87.6,109l-0.2,0.4c-0.1,0-0.2,0.1-0.2,0.1c-0.1,0-0.1,0.1-0.2,0.1c0,0-0.1,0-0.1,0
		c0,0-0.1,0-0.1,0l-0.3-0.3c0.1-0.2,0.1-0.3,0.2-0.4c0.1-0.1,0.2-0.2,0.4-0.2c0,0,0.1,0,0.1,0c0,0,0.1,0,0.1,0
		c0,0.1,0.1,0.2,0.2,0.3L87.6,109L87.6,109z M85.2,109.2c-0.1,0.1-0.2,0.2-0.3,0.2c-0.1,0.1-0.2,0.1-0.4,0.1c-0.1,0-0.2-0.1-0.2-0.2
		c-0.1-0.1-0.1-0.2-0.1-0.3c0-0.1,0-0.2,0.1-0.3c0.1-0.1,0.1-0.1,0.2-0.2c0.1,0,0.2,0.1,0.3,0.1c0.1,0,0.2,0.1,0.3,0.1v0.2
		C85.2,109.1,85.2,109.1,85.2,109.2C85.2,109.2,85.2,109.2,85.2,109.2L85.2,109.2z M92.2,117.5c-0.1,0.1-0.1,0.3-0.2,0.3
		c-0.1,0-0.1,0.1-0.2,0.1c-0.1,0-0.1,0-0.2,0c0,0-0.1,0-0.2-0.1c-0.1,0-0.1-0.1-0.2-0.1c0-0.1,0-0.2,0-0.2c0-0.1,0-0.1,0-0.2
		c0,0,0-0.1,0-0.1c0,0,0-0.1,0-0.1c0,0,0.1,0,0.1-0.1c0,0,0.1,0,0.1,0c0,0,0.1,0,0.1,0c0.2,0,0.3,0,0.5,0.1c0,0.1,0,0.1,0,0.2
		C92.1,117.4,92.1,117.5,92.2,117.5L92.2,117.5z M90.1,116.2c0,0.1,0,0.1,0,0.2c0,0.1-0.1,0.1-0.1,0.2c-0.1,0-0.1,0-0.2,0
		c-0.1,0-0.1,0-0.2,0c-0.1,0-0.1,0-0.2-0.1c-0.1,0-0.1-0.1-0.2,0c-0.1-0.1-0.1-0.2-0.1-0.2c0-0.1,0-0.1,0-0.2c0-0.1,0-0.1,0-0.2
		c0,0,0.1-0.1,0.1-0.1c0,0,0.1-0.1,0.1-0.1l0.1-0.1c0,0,0.1,0,0.1,0h0.1c0.1,0,0.2,0.1,0.3,0.1C90.1,115.9,90.1,116,90.1,116.2
		L90.1,116.2z M85.2,111.5c0,0,0,0.1,0,0.1c0,0.1-0.1,0.1-0.1,0.1c0,0.1,0.1,0.1,0.1,0.2c-0.1,0-0.2,0-0.3,0c-0.1,0-0.2,0-0.3,0
		c0,0-0.1,0-0.2,0c-0.1-0.1-0.1-0.2-0.2-0.3c-0.1-0.1-0.1-0.2-0.1-0.3c0,0,0-0.1,0.1-0.1c0,0,0.1-0.1,0.1-0.1c0,0-0.1-0.1-0.1-0.2
		h0.4c0.1,0,0.2,0,0.3,0.1c0.1,0,0.2,0.1,0.3,0.1c0,0.1,0,0.2,0.1,0.2C85.2,111.3,85.2,111.4,85.2,111.5L85.2,111.5z M93.2,120.1
		c0,0.1-0.1,0.1-0.2,0.2c-0.1,0.1-0.1,0.1-0.2,0.1c0,0-0.1,0-0.1,0c0,0-0.1,0-0.1,0c-0.1-0.1-0.2-0.1-0.3-0.2
		c-0.1,0-0.1-0.1-0.2-0.3c0.1-0.1,0.2-0.2,0.2-0.2c0.1-0.1,0.2-0.2,0.3-0.2c0.1,0,0.2,0,0.3,0c0.1,0,0.2,0,0.3,0
		c0,0.1,0,0.2,0.1,0.2c0,0.1,0,0.1,0,0.2L93.2,120.1L93.2,120.1z M87.7,115.9c0,0.1-0.1,0.1-0.1,0.2c0,0.1-0.1,0.1-0.1,0.2
		c0,0-0.1,0-0.1,0c0,0-0.1,0-0.1,0c0,0-0.1,0-0.3,0c0,0-0.1-0.1-0.1-0.1c0,0-0.1,0-0.1,0c0,0-0.1,0-0.1,0c0,0,0-0.1,0-0.1
		c0,0,0-0.1,0-0.1c-0.1-0.1-0.1-0.1-0.1-0.2c0,0,0.1-0.1,0.1-0.1c0-0.1,0-0.1,0.1-0.2c0,0,0.1,0,0.1,0c0,0,0.1,0,0.1,0
		c0.1,0,0.2,0,0.3,0c0.1,0,0.2,0,0.2,0.1C87.6,115.7,87.6,115.8,87.7,115.9L87.7,115.9z M85.2,113.7c0,0.1-0.1,0.2-0.2,0.3
		c-0.1,0.1-0.2,0.1-0.3,0.1c-0.1,0-0.2,0-0.3-0.1c-0.1-0.1-0.1-0.1-0.2-0.2c0-0.1,0-0.1,0-0.2c0-0.1,0-0.1,0-0.2c0-0.1,0-0.2,0-0.2
		c0.1,0,0.2,0,0.2-0.1c0,0,0.1,0,0.2,0c0,0,0.1,0,0.1,0c0,0,0.1,0,0.1,0c0.1,0,0.1,0.1,0.2,0.1c0.1,0.1,0.1,0.1,0.1,0.2
		C85.2,113.6,85.2,113.7,85.2,113.7L85.2,113.7z M93.1,122.3c0,0.1,0,0.2-0.1,0.3c-0.1,0.1-0.1,0.2-0.2,0.2c-0.1,0-0.1,0-0.2,0
		c-0.1,0-0.1,0-0.2,0c-0.1,0-0.1-0.1-0.2-0.1c0-0.1-0.1-0.1-0.2-0.2c0,0,0-0.1,0-0.1c0,0,0-0.1,0-0.1l-0.1-0.1
		c0.1,0,0.1-0.1,0.2-0.1c0-0.1,0.1-0.1,0.1-0.2c0,0,0.1,0,0.2,0c0.1,0,0.1,0,0.2,0c0,0,0.1,0,0.1,0l0.3,0.2c0,0,0,0.1,0,0.1
		C93.1,122.2,93.1,122.3,93.1,122.3L93.1,122.3z M85.2,115.9c0,0.1-0.1,0.2-0.2,0.3c-0.1,0.1-0.3,0.2-0.4,0.2c0,0-0.1,0-0.1,0
		c0,0-0.1,0-0.1,0c-0.1-0.1-0.2-0.1-0.3-0.1c0-0.1,0-0.2,0-0.3c0-0.1,0-0.2,0-0.3c0.1,0,0.2-0.1,0.3-0.1c0-0.1,0.1-0.1,0.2-0.1
		c0,0,0.1,0,0.1,0c0,0,0,0,0.1,0c0.1,0,0.1,0,0.2,0l0.1-0.1c0,0.1,0.1,0.1,0.1,0.3C85.2,115.8,85.2,115.8,85.2,115.9L85.2,115.9z
		 M91.7,124.5c-0.1,0.1-0.2,0.2-0.2,0.3c-0.1,0.1-0.2,0.2-0.3,0.2c-0.2,0-0.3-0.1-0.4-0.2c-0.1-0.1-0.2-0.2-0.2-0.4
		c0.1-0.1,0.1-0.1,0.1-0.2c0,0,0-0.1,0.1-0.2c0.1,0,0.1-0.1,0.2-0.1c0.1,0,0.1,0,0.2,0c0.1,0,0.2,0,0.3,0.1c0.1,0,0.2,0.1,0.3,0.1
		c0,0-0.1,0.1-0.1,0.1c0,0,0.1,0.1,0.1,0.1C91.7,124.4,91.7,124.4,91.7,124.5L91.7,124.5z M89.3,125.5c-0.1,0.1-0.2,0.3-0.3,0.4
		h-0.2c-0.2,0-0.3,0-0.4-0.1c-0.1-0.1-0.2-0.2-0.2-0.4l0.1-0.3c0.1-0.1,0.2-0.2,0.3-0.2c0.1,0,0.2,0,0.3,0.1c0.1,0,0.2,0.1,0.3,0.2
		c0,0.1,0,0.2,0,0.2C89.3,125.4,89.3,125.5,89.3,125.5L89.3,125.5z M86.7,125c0,0.1,0,0.2-0.2,0.3c-0.1,0.1-0.2,0.2-0.3,0.2
		c-0.1,0-0.2,0-0.3-0.1c-0.1-0.1-0.2-0.1-0.2-0.2l0-0.3c0-0.1,0-0.1,0.1-0.2c0,0,0.1-0.1,0.2-0.1l0.1-0.2c0.1,0,0.2,0.1,0.2,0.1
		c0.1,0,0.1,0,0.3,0c0,0.1,0.1,0.1,0.1,0.2C86.7,124.9,86.7,124.9,86.7,125L86.7,125z M84.4,124.3c-0.1,0-0.2,0.1-0.3,0.1
		c-0.1,0-0.2,0.1-0.3,0.1c-0.4-0.1-0.5-0.3-0.6-0.7c0.1-0.1,0.1-0.2,0.2-0.2c0,0,0.1-0.1,0.1-0.2c0.1,0,0.2,0,0.3,0
		c0.1,0,0.2,0,0.3,0c0.2,0.2,0.3,0.3,0.3,0.3C84.3,123.9,84.3,124.1,84.4,124.3L84.4,124.3z"/>
	<path class="st0" d="M124.4,115.9c0,0.1,0,0.1,0,0.2c0,0.1-0.1,0.1-0.1,0.2c-0.1,0-0.1,0.1-0.2,0.1c0,0-0.1,0.1-0.2,0.1
		c-0.1,0-0.3-0.1-0.4-0.1c-0.1,0-0.2-0.2-0.2-0.3c0-0.1,0-0.1,0-0.2c0,0,0-0.1,0-0.2c0.1-0.1,0.2-0.1,0.2-0.2c0.1,0,0.2-0.1,0.3-0.1
		c0.1,0,0.2,0,0.2,0c0.1,0,0.2,0,0.2,0c0,0.1,0,0.1,0,0.2C124.4,115.8,124.4,115.8,124.4,115.9L124.4,115.9z M122.6,116
		c0,0.2-0.1,0.3-0.2,0.4c-0.1,0.1-0.3,0.2-0.4,0.2c0,0-0.1-0.1-0.1-0.1c0,0-0.1,0-0.1,0l-0.3-0.3c0-0.1,0.1-0.1,0.1-0.2
		c0-0.1,0.1-0.1,0.1-0.2c0.2-0.1,0.3-0.1,0.5-0.1h0.2c0,0.1,0.1,0.1,0.1,0.2C122.6,115.8,122.6,115.9,122.6,116L122.6,116z
		 M120.9,116c0,0.1-0.1,0.2-0.2,0.4c-0.1,0.1-0.2,0.2-0.4,0.2c-0.1,0-0.1,0-0.2-0.1c0,0-0.1-0.1-0.2-0.1l-0.2-0.4
		c0-0.1,0.1-0.2,0.1-0.3c0.1,0,0.1-0.1,0.2-0.1c0.1,0,0.2,0,0.2-0.1c0.1,0.1,0.2,0.1,0.3,0.2C120.7,115.8,120.8,115.9,120.9,116
		L120.9,116z M124.3,120.2c-0.1,0-0.1,0.1-0.2,0.1c0,0-0.1,0.1-0.2,0.1c-0.1,0-0.3-0.1-0.4-0.1s-0.2-0.1-0.2-0.3c0-0.1,0-0.1,0-0.2
		c0,0,0-0.1,0-0.2c0.1-0.1,0.2-0.1,0.2-0.2c0.1,0,0.2-0.1,0.3-0.1c0.1,0,0.1,0,0.1,0c0.2,0,0.3,0,0.3,0.1c0,0.1,0.1,0.1,0.1,0.2
		c0,0,0,0.1,0,0.2C124.3,120.1,124.3,120.2,124.3,120.2L124.3,120.2z M119.2,116c0,0.2-0.1,0.3-0.2,0.4c-0.1,0.1-0.3,0.1-0.5,0.1
		c-0.1,0-0.2,0-0.3-0.1c-0.1-0.1-0.1-0.2-0.1-0.3c0-0.1,0.1-0.3,0.1-0.4c0.1-0.1,0.2-0.2,0.3-0.2c0.1,0,0.2,0,0.2,0
		c0.1,0,0.2,0.1,0.2,0.1c0,0.1,0.1,0.1,0.1,0.2C119.1,115.9,119.2,115.9,119.2,116L119.2,116z M122.6,119.9c0,0.1-0.1,0.3-0.2,0.4
		c-0.1,0.1-0.2,0.1-0.4,0.1c-0.1,0-0.1,0-0.2,0c0,0-0.1,0-0.2,0l-0.3-0.3c0-0.1,0.1-0.1,0.1-0.2c0-0.1,0.1-0.1,0.1-0.2
		c0.2-0.1,0.3-0.1,0.5-0.1h0.2c0,0.1,0.1,0.1,0.1,0.2C122.6,119.7,122.6,119.8,122.6,119.9L122.6,119.9z M117.4,116
		c0,0.1,0,0.2,0,0.2c0,0-0.1,0.1-0.1,0.2c-0.1,0-0.1,0.1-0.2,0.1c0,0-0.1,0.1-0.2,0.1c-0.1,0-0.3-0.1-0.4-0.1
		c-0.1-0.1-0.2-0.2-0.2-0.3c0-0.1,0-0.1,0-0.2c0,0,0-0.1,0-0.2c0.2-0.2,0.3-0.2,0.5-0.2c0.1,0,0.2,0,0.2,0c0.1,0,0.2,0,0.2,0
		c0,0.1,0,0.1,0,0.2C117.4,115.8,117.4,115.9,117.4,116L117.4,116z M120.9,119.9c0,0.1-0.1,0.2-0.1,0.2c0,0-0.1,0.1-0.1,0.1
		c0,0-0.1,0-0.1,0c0,0-0.1,0.1-0.1,0.1c-0.1,0-0.1,0-0.2,0c-0.1,0-0.1,0-0.2-0.1c-0.1,0-0.1-0.1-0.2-0.1l-0.2-0.4
		c0-0.1,0.1-0.2,0.1-0.3c0-0.1,0-0.1,0.1-0.1c0.1,0,0.2,0,0.2,0c0,0,0.1,0,0.1-0.1c0.1,0.1,0.2,0.1,0.3,0.2
		C120.7,119.7,120.8,119.8,120.9,119.9L120.9,119.9z M119.2,119.9c0,0.1,0,0.2-0.1,0.2c0,0.1-0.1,0.1-0.2,0.2
		c-0.1,0-0.2,0.1-0.2,0.1c-0.1,0-0.1,0-0.2,0c-0.1,0-0.2,0-0.3-0.1c-0.1-0.1-0.2-0.2-0.2-0.3c0-0.1,0-0.2,0-0.2c0,0,0.1-0.1,0.1-0.2
		c0,0,0.1-0.1,0.2-0.1c0.1,0,0.1-0.1,0.2-0.1c0.1,0,0.2,0,0.2,0c0.1,0,0.2,0.1,0.2,0.1c0,0.1,0.1,0.1,0.1,0.2
		C119.1,119.7,119.2,119.8,119.2,119.9L119.2,119.9z M117.4,119.8c0,0.1,0,0.2-0.1,0.2c0,0.1-0.1,0.1-0.1,0.2
		c-0.1,0-0.1,0.1-0.2,0.1c0,0-0.1,0.1-0.2,0.1c-0.1,0-0.2-0.1-0.4-0.1c-0.2-0.1-0.2-0.2-0.2-0.3c0-0.1,0-0.1,0-0.2c0,0,0-0.1,0-0.2
		c0.1-0.2,0.3-0.2,0.5-0.2c0.1,0,0.1,0,0.1,0c0.1,0,0.1,0,0.2,0.1c0,0.1,0.1,0.1,0.1,0c0,0,0,0.1,0.1,0.1
		C117.4,119.7,117.4,119.8,117.4,119.8L117.4,119.8z M24,143.4L24,143.4c0,0.1-0.1,0.2-0.1,0.2c0,0,0,0.1,0,0.1
		c-0.1,0.1-0.1,0.1-0.2,0.1c-0.1,0-0.1,0-0.2,0c-0.1,0-0.2,0-0.2-0.1c0-0.1-0.1-0.1-0.2,0c0-0.1,0-0.1,0-0.2c0-0.1,0-0.1,0-0.2
		c0-0.1,0-0.2,0.1-0.3c0.1-0.1,0.2-0.1,0.3-0.1c0.1,0,0.3,0,0.4,0.1C23.9,143.2,24,143.3,24,143.4L24,143.4z M22.2,142
		c0,0.1,0,0.1,0,0.2c0,0-0.1,0.1-0.1,0.1c-0.1,0-0.2,0.1-0.4,0.1c-0.1,0-0.2,0-0.2-0.1c-0.1,0-0.2-0.1-0.2-0.1v-0.3
		c0-0.3,0.1-0.4,0.4-0.4c0,0,0.1,0,0.1,0c0.1,0,0.1,0,0.2,0c0,0.1,0.1,0.2,0.1,0.2C22.2,141.9,22.2,141.9,22.2,142L22.2,142z
		 M25,145.9c-0.1,0.2-0.2,0.3-0.2,0.4c0,0.1-0.2,0.1-0.4,0.1c-0.1,0-0.1,0-0.2,0c0,0-0.1,0-0.2,0c0-0.1-0.1-0.1-0.1-0.2
		c0-0.1,0-0.1,0-0.2c0,0,0,0,0-0.1s0-0.1,0-0.1l0-0.1l0.1-0.1c0,0,0.1,0,0.1,0c0,0,0.1,0,0.1,0c0,0,0.1,0,0.1,0c0.1,0,0.1,0,0.2,0
		c0.1,0,0.1,0,0.2,0c0,0.1,0,0.1,0.1,0.2C24.9,145.7,25,145.8,25,145.9L25,145.9z M19.9,142.1c0,0.1,0,0.2,0,0.3c-0.1,0-0.1,0-0.2,0
		c0,0-0.1,0-0.2,0.1c-0.1,0-0.2-0.1-0.3-0.1c-0.1,0-0.2-0.1-0.3-0.1v-0.3V142c0,0,0.1-0.1,0.1-0.2c0-0.1,0.1-0.1,0.1-0.1
		c0.1,0,0.2,0,0.2,0c0.1,0,0.1,0,0.1,0c0,0,0.1,0,0.1,0.1c0,0,0.1,0.1,0.2,0.1C19.9,142,19.9,142.1,19.9,142.1L19.9,142.1z
		 M24.7,148.6c0,0.1,0,0.2-0.1,0.3c-0.1,0.1-0.1,0.1-0.3,0.1c-0.1,0-0.2,0-0.2,0c-0.1,0-0.2,0-0.2-0.1c-0.1,0-0.1-0.1-0.2-0.2v-0.2
		c0-0.1,0-0.1,0-0.2c0-0.1,0-0.1,0-0.2c0.1,0,0.1-0.1,0.2-0.1c0.1,0,0.1-0.1,0.2-0.1c0.1,0,0.2,0,0.3,0.1c0.1,0.1,0.2,0.2,0.2,0.2
		V148.6L24.7,148.6z M17.8,143.1c0,0.1,0,0.2-0.1,0.3c-0.1,0.1-0.1,0.1-0.2,0.2c-0.1-0.1-0.2-0.1-0.3-0.1c-0.1,0-0.2-0.1-0.3-0.2
		v-0.1c0,0,0-0.1,0-0.1c0,0,0-0.1,0-0.1c0-0.2,0.1-0.3,0.2-0.3c0.1-0.1,0.2-0.1,0.4-0.1c0.1,0,0.1,0,0.2,0c0.1,0.1,0.1,0.2,0.2,0.2
		C17.7,142.9,17.8,143,17.8,143.1L17.8,143.1z M23.5,151c0,0.1,0,0.2-0.1,0.3c-0.1,0.1-0.1,0.2-0.2,0.2H23c-0.1,0-0.2,0-0.3-0.1
		c0-0.1-0.1-0.2-0.1-0.2c0-0.1-0.1-0.2-0.1-0.2c0,0,0-0.1,0-0.1c0,0,0.1-0.1,0.1-0.2c0-0.1,0.1-0.1,0.2-0.1H23c0,0,0.1,0,0.1,0
		c0,0,0.1,0,0.1,0c0.1,0.1,0.1,0.1,0.2,0.2C23.5,150.9,23.5,151,23.5,151L23.5,151z M16,144.9c0,0.1-0.1,0.2-0.2,0.2
		c-0.1,0.1-0.2,0.1-0.3,0.1c0,0-0.1,0-0.1,0c0,0,0,0-0.1,0c-0.1-0.1-0.1-0.1-0.1-0.1s-0.1,0-0.2,0c0,0,0-0.1,0-0.2c0,0,0-0.1,0-0.1
		c0,0-0.1-0.1-0.1-0.1c0.1,0,0.1-0.1,0.2-0.1c0,0,0.1-0.1,0.2-0.1c0.1,0,0.2-0.1,0.3-0.1c0,0,0.1,0,0.2,0l0.2,0.2V144.9L16,144.9z
		 M21.9,153.1c0,0.1,0,0.2-0.1,0.3c-0.1,0.1-0.1,0.2-0.2,0.2h-0.2c0,0-0.1,0-0.1,0c0,0-0.1,0-0.1,0c-0.1,0-0.2,0-0.2-0.1
		c0-0.1-0.1-0.1-0.2-0.2c0,0,0-0.1,0-0.2c0-0.1,0-0.1,0-0.2c0,0,0-0.1,0-0.2c0.1,0,0.2-0.1,0.2-0.1c0.1,0,0.2-0.1,0.3-0.1
		c0.1,0,0.2,0,0.3,0.1c0,0,0.1,0.1,0.1,0.2C21.9,153,21.9,153,21.9,153.1L21.9,153.1z M25.3,159c0,0-0.1,0.1-0.1,0.1
		c0,0-0.1,0.1-0.1,0.1c-0.1,0-0.2,0.1-0.3,0l-0.1,0c-0.1-0.1-0.1-0.1-0.1-0.1c0,0-0.1-0.1-0.2-0.1V159c0-0.2,0-0.3,0.1-0.4
		c0.1-0.1,0.2-0.2,0.4-0.2c0,0,0.1,0,0.2,0c0.1,0.1,0.2,0.2,0.2,0.3C25.2,158.8,25.3,158.9,25.3,159L25.3,159z M20.1,155
		c0,0.1-0.1,0.2-0.1,0.3c-0.1,0.1-0.2,0.1-0.3,0.1c-0.4,0-0.6-0.2-0.6-0.6c0-0.1,0-0.1,0.1-0.2c0.1,0,0.1-0.1,0.2-0.1
		c0.1,0,0.1-0.1,0.2-0.1c0.1,0,0.1,0,0.2,0c0,0,0.1,0,0.1-0.1c0.1,0.1,0.1,0.2,0.2,0.3C20,154.8,20,154.9,20.1,155L20.1,155z
		 M23.1,158.9c-0.1,0.1-0.1,0.2-0.2,0.3c0,0-0.1,0.1-0.2,0.2c-0.1-0.1-0.3-0.1-0.4-0.2c-0.1-0.1-0.2-0.2-0.2-0.3
		c0-0.2,0.1-0.3,0.2-0.4c0.1-0.1,0.3-0.1,0.4-0.1c0.1,0,0.1,0,0.2,0c0.1,0,0.1,0,0.2,0v0.2c0,0,0,0.1,0,0.1
		C23.1,158.8,23.1,158.8,23.1,158.9L23.1,158.9z M20.8,158.7c0,0.1-0.1,0.2-0.2,0.4c-0.1,0.1-0.2,0.2-0.3,0.1
		c-0.1,0-0.2,0.1-0.3,0.1c-0.1,0-0.1,0-0.1-0.1c-0.1-0.1-0.2-0.2-0.2-0.3c0-0.1,0-0.2,0.1-0.3c0.1-0.1,0.1-0.2,0.2-0.3l0.4,0.1
		C20.5,158.6,20.6,158.7,20.8,158.7z M18.1,156.9c0,0.1,0,0.2-0.2,0.3c-0.1,0.1-0.2,0.1-0.4,0.1h-0.2c-0.1,0-0.1-0.1-0.2-0.1
		c0,0-0.1-0.1-0.1-0.2c0-0.1,0-0.2,0.1-0.3c0.1-0.1,0.1-0.2,0.2-0.3l0.1,0.1c0,0,0.1,0,0.1,0c0,0,0.1,0,0.1,0c0.1,0,0.1,0,0.2,0.1
		c0.1,0.1,0.1,0.1,0.2,0.2V156.9L18.1,156.9z M18.4,158.9c-0.1,0.1-0.1,0.1-0.2,0.2c-0.1,0.1-0.1,0.2-0.2,0.2
		c-0.2,0-0.3-0.1-0.3-0.1c0,0-0.1-0.1-0.3-0.2c0-0.1,0-0.2,0.1-0.3c0-0.1,0.1-0.2,0.2-0.3c0.1,0,0.1,0,0.2,0c0.1,0,0.1,0,0.2,0
		c0.1,0.1,0.2,0.2,0.2,0.2C18.3,158.7,18.4,158.8,18.4,158.9L18.4,158.9z M16,158.7c0,0.1,0,0.2,0,0.3c0,0.1-0.1,0.2-0.1,0.3
		c-0.2,0.1-0.3,0.1-0.4,0.1c-0.1,0-0.1,0-0.2-0.1c-0.1,0-0.1-0.1-0.2-0.1c0-0.1,0-0.2,0-0.3c0-0.1,0-0.2,0.1-0.3
		c0.1-0.1,0.2-0.2,0.3-0.2c0.1,0,0.1,0,0.2,0c0.1,0,0.1,0,0.2,0c0,0.1,0.1,0.1,0.1,0.1C15.9,158.6,16,158.6,16,158.7L16,158.7z
		 M60.3,142.5c-0.1,0-0.2,0.1-0.2,0.1c0,0-0.1,0.1-0.2,0.1c0,0-0.1,0-0.1,0c0,0-0.1,0-0.1,0l-0.1,0c-0.1,0-0.2-0.1-0.3-0.2
		c0-0.1-0.1-0.2-0.1-0.3c0-0.1,0.1-0.1,0.1-0.2c0,0,0.1-0.1,0.2-0.2c0,0,0.1,0,0.2,0c0.1,0,0.1,0,0.2,0c0.1,0,0.1,0,0.2,0
		c0,0.1,0.1,0.2,0.1,0.3C60.2,142.3,60.3,142.4,60.3,142.5L60.3,142.5z M59.1,144.2c0,0.1-0.1,0.2-0.2,0.3c-0.1,0.1-0.2,0.1-0.4,0.1
		c-0.1,0-0.1,0-0.2,0c-0.1,0-0.1-0.1-0.2-0.1c0-0.1-0.1-0.1-0.1-0.2c0-0.1,0-0.1,0-0.1c0,0,0-0.1,0-0.1c0,0,0-0.1,0.1-0.1
		c0.1-0.1,0.1-0.2,0.2-0.3c0.2,0,0.4,0,0.6,0.1c0,0.1,0.1,0.2,0.1,0.2C59.1,144,59.1,144.1,59.1,144.2L59.1,144.2z M57.6,146.4
		c0,0.1-0.1,0.1-0.1,0.2c0,0.1-0.1,0.1-0.1,0.2c-0.1,0.1-0.3,0.2-0.3,0.2c-0.2,0-0.3,0-0.3-0.1c0-0.1-0.1-0.2-0.2-0.3v-0.1
		c0-0.1,0-0.2,0.1-0.2c0,0,0.1-0.1,0.1-0.1c0.1,0,0.1-0.1,0.1-0.1c0,0,0.1,0,0.1,0l0.1,0c0,0,0.1,0.1,0.1,0.1c0.1,0,0.1,0.1,0.1,0.1
		c0.1,0.1,0.1,0.1,0.1,0.2C57.4,146.3,57.5,146.4,57.6,146.4L57.6,146.4z M56.1,148.5c0,0.1,0,0.2,0,0.3c0,0.1-0.1,0.1-0.2,0.2h-0.2
		c-0.1,0-0.2,0-0.3-0.1c-0.1,0-0.1-0.1-0.2-0.2c0,0,0-0.1,0-0.2c0-0.1,0-0.1,0-0.2c0-0.1,0-0.1,0.1-0.2c0,0,0.1-0.1,0.1-0.2
		c0.1,0,0.1,0,0.2,0c0.1,0,0.1,0,0.2,0c0.1,0,0.2,0.1,0.3,0.2C56.1,148.3,56.1,148.4,56.1,148.5L56.1,148.5z M49.2,142.4
		c0,0,0,0.1,0,0.1c0,0,0,0.1,0,0.1c-0.1,0-0.2,0.1-0.2,0.1c-0.1,0-0.2,0-0.3,0h-0.3c0,0-0.1-0.1-0.1-0.1c0-0.1-0.1-0.1-0.1-0.2
		c0-0.1,0-0.2,0.1-0.3c0-0.1,0.1-0.2,0.2-0.3c0,0,0.1,0,0.1,0c0,0,0.1,0,0.1,0c0.1,0,0.2,0.1,0.4,0.2
		C49.1,142.1,49.2,142.2,49.2,142.4L49.2,142.4z M50.6,144.4c-0.1,0.1-0.1,0.2-0.2,0.4c0,0.1-0.1,0.2-0.3,0.2
		c-0.2,0-0.3-0.1-0.4-0.2c-0.1-0.1-0.1-0.2-0.1-0.4c0-0.1,0-0.2,0.1-0.2c0.1,0,0.1-0.1,0.2-0.1c0.1,0,0.1-0.1,0.2-0.1
		c0.1,0,0.1,0.1,0.2,0.1c0,0.1,0.1,0.1,0.2,0.1L50.6,144.4L50.6,144.4z M52,146.4c0,0.1,0,0.1,0,0.2c0,0,0,0.1-0.1,0.2
		c0,0,0,0.1,0,0.1c0,0,0,0.1,0,0.1c-0.2,0.1-0.4,0.1-0.5,0.1c-0.1,0-0.2,0-0.3,0c-0.1,0-0.2-0.1-0.3-0.1v-0.2c0,0,0-0.1,0-0.2
		c0-0.1,0-0.1,0-0.1c0.1-0.1,0.1-0.1,0.2-0.2c0.1,0,0.1-0.1,0.1-0.2c0.2,0.1,0.3,0.1,0.3,0.1c0.1,0,0.2,0.1,0.3,0.2
		C51.9,146.4,51.9,146.4,52,146.4z M53.3,148.7c0,0.1-0.1,0.2-0.2,0.3c-0.1,0.1-0.2,0.2-0.3,0.2c-0.1,0-0.1,0-0.2,0c0,0-0.1,0-0.2,0
		c-0.1-0.1-0.1-0.1-0.1-0.2c0-0.1-0.1-0.1-0.1-0.2c0-0.1,0.1-0.2,0.1-0.3c0-0.1,0.1-0.1,0.3-0.2c0.1,0,0.3,0,0.4,0.1
		C53.2,148.4,53.3,148.5,53.3,148.7L53.3,148.7z M54.8,150.6c0,0.1,0,0.2-0.1,0.3c-0.1,0-0.1,0.1-0.2,0.1c-0.1,0-0.1,0-0.2,0
		c-0.1,0-0.2-0.1-0.3-0.2c-0.1-0.1-0.2-0.2-0.2-0.3c0.1-0.1,0.1-0.2,0.2-0.3c0-0.1,0.1-0.2,0.2-0.3c0.1,0,0.1,0,0.2,0
		c0.1,0,0.2,0.1,0.3,0.2C54.7,150.3,54.8,150.5,54.8,150.6L54.8,150.6z M56.2,152.5c0,0.1,0,0.1,0,0.2c0,0.1-0.1,0.1-0.1,0.2
		c-0.2,0.1-0.3,0.1-0.3,0.1c-0.1,0-0.2,0-0.3-0.1c-0.1,0-0.1-0.1-0.2-0.2v-0.1c0-0.1,0-0.1,0-0.2c0-0.1-0.1-0.1-0.1-0.2
		c0.1,0,0.2-0.1,0.3-0.1c0.1,0,0.2-0.1,0.3-0.1c0.1,0,0.1,0,0.2,0.1c0.1,0.1,0.1,0.1,0.2,0.2C56.2,152.4,56.2,152.4,56.2,152.5
		L56.2,152.5z M57.7,154.7c-0.1,0.2-0.2,0.3-0.2,0.3c-0.1,0.1-0.2,0.1-0.4,0.1c-0.1,0-0.2,0-0.2,0c0,0-0.1-0.1-0.2-0.1
		c0-0.1,0-0.2-0.1-0.3c0-0.1,0.1-0.2,0.1-0.2c0-0.1,0.1-0.1,0.2-0.2H57c0.1,0,0.2,0,0.2,0c0.1,0,0.1,0,0.2,0.1
		c0.1,0,0.1,0.1,0.2,0.1c0,0.1,0,0.1,0.1,0.2C57.7,154.5,57.7,154.6,57.7,154.7L57.7,154.7z M59.2,156.7c0,0.1,0,0.2-0.1,0.3
		c-0.1,0.1-0.2,0.2-0.3,0.2c-0.1,0-0.2,0-0.3-0.1c-0.1-0.1-0.2-0.1-0.2-0.2c0,0,0-0.1,0-0.1c0,0,0-0.1,0-0.1v-0.1
		c0.2-0.2,0.3-0.2,0.5-0.2c0,0,0.1,0,0.1,0c0,0,0.1,0,0.1,0c0,0,0.1,0.1,0.1,0.1c0,0,0.1,0.1,0.1,0.1L59.2,156.7L59.2,156.7z
		 M60.7,158.8c0,0.1-0.1,0.1-0.1,0.2c0,0.1-0.1,0.1-0.1,0.2c-0.1,0-0.1,0-0.2,0c-0.1,0-0.1,0-0.2,0c-0.1-0.1-0.2-0.1-0.3-0.2
		c-0.1-0.1-0.1-0.2-0.1-0.3c0-0.1,0-0.2,0.1-0.3l0.5-0.2C60.4,158.3,60.6,158.5,60.7,158.8L60.7,158.8z M53.4,152.5
		c-0.1,0.1-0.1,0.1-0.1,0.1c0,0,0,0.1-0.1,0.2c-0.1,0.1-0.2,0.1-0.3,0.1c-0.2,0-0.4-0.1-0.6-0.3v-0.2c0-0.1,0-0.2,0-0.3
		c0.1,0,0.2-0.1,0.2-0.1c0-0.1,0.1-0.1,0.3-0.1c0.2,0,0.3,0.1,0.5,0.2v0.1c0,0.1,0.1,0.1,0.1,0.1C53.4,152.4,53.4,152.4,53.4,152.5
		L53.4,152.5z M51.9,154.7c-0.1,0.1-0.2,0.1-0.3,0.2c-0.1,0.1-0.2,0.1-0.3,0.1c0,0-0.1,0-0.1,0c0,0-0.1,0-0.1,0
		c0-0.1-0.1-0.1-0.1-0.2c0,0-0.1,0-0.1,0c0,0-0.1,0-0.1,0c0.1-0.1,0.1-0.1,0.1-0.2c0,0,0-0.1,0.1-0.1c0,0,0-0.1,0-0.1
		c0,0,0-0.1,0-0.2c0.1,0,0.2-0.1,0.2-0.1c0.1,0,0.2-0.1,0.3-0.1c0.1,0,0.2,0.1,0.2,0.2c0.1,0.1,0.1,0.1,0.2,0.2v0.1c0,0,0,0.1,0,0.1
		C51.9,154.6,51.9,154.7,51.9,154.7L51.9,154.7z M50.4,156.5c0,0.1,0,0.1-0.1,0.1s0,0.1,0,0.1c-0.1,0.1-0.3,0.2-0.4,0.2
		c-0.1,0-0.2-0.1-0.3-0.1c-0.1,0-0.2-0.1-0.3-0.2v-0.2c0-0.4,0.2-0.5,0.5-0.5c0.1,0,0.2,0,0.3,0c0,0.1,0.1,0.2,0.1,0.2
		C50.4,156.3,50.4,156.4,50.4,156.5L50.4,156.5z M48.9,158.9c-0.1,0.1-0.1,0.2-0.2,0.3c-0.1,0.1-0.2,0.2-0.3,0.2c-0.1,0-0.1,0-0.2,0
		c-0.1,0-0.1,0-0.2,0c0-0.1-0.1-0.2-0.1-0.2c0-0.1-0.1-0.2-0.1-0.2c0-0.1,0-0.1,0-0.2s0-0.1,0-0.2c0.1,0,0.1,0,0.2-0.1
		c0.1,0,0.1,0,0.2,0c0.1,0,0.1,0,0.2,0.1c0.1,0,0.1,0.1,0.2,0.1c0,0.1,0.1,0.1,0.1,0.2C48.8,158.7,48.9,158.8,48.9,158.9L48.9,158.9
		z"/>
	<path class="st0" d="M93.9,142.9c0,0.2-0.1,0.3-0.2,0.4c-0.1,0.1-0.2,0.1-0.4,0.1c-0.2,0-0.3-0.1-0.4-0.2c0-0.1-0.1-0.1-0.1-0.2
		c0,0,0-0.1-0.1-0.1c0-0.1,0.1-0.2,0.2-0.3c0.1-0.1,0.2-0.2,0.3-0.2c0,0,0.1,0,0.1,0c0,0,0.1,0,0.1,0c0.1,0.1,0.1,0.2,0.2,0.3
		C93.9,142.7,93.9,142.8,93.9,142.9L93.9,142.9z M91.7,141.9c0,0.2,0,0.3-0.1,0.3c-0.1,0-0.1,0.1-0.1,0.2h-0.5c0-0.1,0-0.1-0.1-0.1
		c0,0-0.1,0-0.1,0c0-0.1,0-0.1,0-0.2c0-0.1,0-0.1,0-0.2c0-0.1,0-0.2,0-0.3c0.1,0,0.2-0.1,0.3-0.1c0.1,0,0.2,0,0.3,0h0.2
		c0.1,0.1,0.1,0.1,0.1,0.2C91.7,141.8,91.7,141.8,91.7,141.9L91.7,141.9z M89.7,142v0.2c-0.1,0.1-0.2,0.1-0.3,0.1
		c-0.1,0-0.2,0.1-0.3,0.1c-0.1,0-0.1-0.1-0.2-0.1c-0.1,0-0.1-0.1-0.2-0.1c0,0,0-0.1,0-0.1c0-0.1,0-0.1,0-0.2c0-0.1,0-0.1,0-0.2
		c0-0.1,0-0.1,0-0.2c0.1,0,0.2-0.1,0.2-0.1c0.1,0,0.2,0,0.2,0c0.1,0,0.3,0,0.3,0.1c0,0.1,0.1,0.1,0.1,0.2
		C89.7,141.9,89.7,141.9,89.7,142L89.7,142z M87.3,143.2c0,0.4-0.3,0.6-0.6,0.6c0,0-0.1,0-0.1,0c0,0-0.1,0-0.1,0
		c0,0-0.1-0.1-0.1-0.2c-0.1-0.1-0.1-0.2-0.1-0.2c0-0.1,0-0.2,0.1-0.3c0.1-0.1,0.2-0.2,0.3-0.2c0,0,0.1,0,0.1,0c0,0,0.1,0,0.1,0
		c0,0,0.1,0,0.1,0c0,0.1,0.1,0.1,0.2,0.2C87.2,143,87.3,143.1,87.3,143.2L87.3,143.2z M94.1,151c0,0.1,0,0.1,0,0.2
		c0,0.1,0,0.1-0.1,0.2c-0.1,0-0.1,0.1-0.2,0.1c-0.1,0-0.1,0.1-0.2,0.1c-0.2,0-0.3-0.1-0.4-0.2c-0.1-0.1-0.1-0.2-0.1-0.4
		c0-0.1,0-0.2,0-0.3c0.1,0,0.1-0.1,0.2-0.1c0,0,0.1-0.1,0.1-0.1c0.1,0,0.1,0,0.2,0c0.1,0,0.1,0,0.2,0L94.1,151z M92.2,149.4
		c0,0.1,0,0.1,0,0.1c0,0,0,0.1,0,0.1l0,0.1c-0.1,0-0.2,0.1-0.3,0.1c-0.1,0-0.1,0.1-0.2,0.1c-0.1,0-0.2-0.1-0.3-0.2
		c-0.1-0.1-0.1-0.2-0.1-0.4c0,0,0-0.1,0-0.1c0,0,0-0.1,0-0.1l0.2-0.3l0.1,0.1c0,0,0.1,0,0.1,0c0,0,0,0,0.1,0c0.1,0,0.3,0,0.3,0.1
		C92.1,149.1,92.2,149.2,92.2,149.4L92.2,149.4z M95,153.6c-0.1,0-0.2,0.1-0.3,0.2c-0.1,0.1-0.2,0.1-0.3,0.1c-0.1,0-0.2-0.1-0.3-0.1
		c-0.1-0.1-0.2-0.2-0.3-0.3c0-0.1,0-0.2,0.1-0.2l0.1-0.3c0,0,0.1,0,0.1,0c0.1,0,0.2-0.1,0.3-0.1c0.1,0,0.1,0.1,0.2,0.2
		c0.1,0.1,0.1,0.1,0.1,0.2C94.9,153.3,95,153.5,95,153.6L95,153.6z M86,145.4c-0.1,0.1-0.2,0.1-0.3,0.2c-0.1,0.1-0.2,0.1-0.3,0.1
		c-0.1,0-0.2,0-0.3-0.1c-0.1-0.1-0.1-0.1-0.2-0.2c0-0.2,0.1-0.3,0.1-0.4c0-0.1,0.1-0.2,0.3-0.3c0,0,0.1,0,0.1,0c0.1,0,0.2,0,0.3,0.1
		c0.1,0,0.2,0.1,0.3,0.1c0,0.1,0,0.1,0,0.2s0,0.1,0,0.2C86,145.3,86,145.3,86,145.4L86,145.4z M89.4,149.1c-0.1,0.1-0.2,0.2-0.3,0.2
		c-0.1,0.1-0.2,0.1-0.3,0.1c0,0-0.1,0-0.1,0c0,0-0.1,0-0.1,0c-0.1,0-0.1,0-0.2-0.1s-0.1-0.1-0.1-0.2c0-0.1,0-0.1,0-0.3v-0.1
		c0-0.1,0-0.1,0-0.2c0.2-0.1,0.3-0.1,0.4-0.1c0.1,0,0.1,0,0.2,0c0.1,0,0.1,0,0.2,0c0.1,0.1,0.1,0.2,0.1,0.3
		C89.3,148.9,89.3,149,89.4,149.1L89.4,149.1z M94.9,156.4c-0.1,0.1-0.1,0.1-0.2,0.2c-0.1,0.1-0.2,0.1-0.3,0.1c0,0-0.1,0-0.2,0
		c0,0-0.1-0.1-0.2-0.2c-0.1-0.1-0.1-0.2-0.1-0.2c0-0.1,0-0.1,0-0.2c0,0,0-0.1,0-0.2c0.1-0.1,0.3-0.1,0.3-0.1c0.1,0,0.2,0,0.3-0.1
		c0,0,0.1,0.1,0.2,0.2c0.1,0.1,0.1,0.1,0.1,0.2L94.9,156.4L94.9,156.4z M85.1,147.9c0,0.1,0,0.1,0,0.2c0,0,0,0.1,0,0.1
		c-0.1,0-0.2,0.1-0.2,0.1c-0.1,0-0.1,0.1-0.2,0.2l-0.5-0.1L84,148c0-0.1,0.1-0.1,0.2-0.2c0.1-0.1,0.1-0.1,0.2-0.2c0.2,0,0.3,0,0.3,0
		c0.1,0,0.2,0,0.3,0.1c0.1,0,0.1,0.1,0.2,0.2L85.1,147.9L85.1,147.9z M86.8,150c0,0.1,0,0.2-0.1,0.3c-0.1,0-0.1,0-0.2,0
		c-0.1,0-0.1,0-0.2,0.1c-0.2,0-0.3,0-0.4-0.1c-0.1-0.1-0.2-0.2-0.2-0.4c0-0.1,0-0.1,0-0.2c0-0.1,0-0.1,0-0.2c0.1,0,0.1-0.1,0.2-0.1
		c0.1,0,0.1-0.1,0.2-0.1c0.1,0,0.2,0,0.2,0.1c0.1,0,0.1,0,0.2,0c0.1,0,0.1,0,0.2,0.1C86.8,149.9,86.8,150,86.8,150L86.8,150z
		 M92.8,158.2c0,0.1,0,0.2-0.1,0.3c0,0.1-0.1,0.2-0.1,0.3h-0.3c-0.2,0-0.3-0.1-0.5-0.2c0-0.1,0-0.2,0-0.2c0-0.1,0-0.2,0-0.2
		c0.1-0.1,0.2-0.1,0.2-0.2c0.1-0.1,0.2-0.1,0.3-0.1c0,0,0.1,0,0.1,0c0,0,0.1,0,0.1,0c0.1,0.1,0.1,0.1,0.2,0.2
		C92.7,158.1,92.7,158.1,92.8,158.2L92.8,158.2z M84.7,151c0,0.1,0,0.2-0.1,0.3c-0.1,0.1-0.2,0.1-0.3,0.2c-0.1,0-0.1,0-0.2,0
		c-0.1,0-0.1,0-0.2,0c0-0.1-0.1-0.2-0.1-0.2c0-0.1-0.1-0.2-0.1-0.3c0.1-0.1,0.1-0.2,0.2-0.2c0-0.1,0.1-0.1,0.2-0.2
		c0.1,0,0.2,0,0.2,0c0.1,0,0.1,0,0.2,0c0,0.1,0.1,0.2,0.2,0.3C84.7,150.8,84.7,150.9,84.7,151L84.7,151z M85.3,153.5
		c0,0.1,0,0.2,0,0.2c0,0.1-0.1,0.2-0.1,0.2H85c-0.1,0-0.1,0-0.2,0.1c-0.1,0-0.1,0.1-0.2,0.1l-0.4-0.3c0-0.1,0-0.2,0-0.2
		c0-0.1,0-0.2,0-0.2c0,0,0.1-0.1,0.2-0.1c0.1,0,0.1-0.1,0.1-0.2c0.1,0,0.3,0.1,0.5,0.1C85.2,153.3,85.3,153.4,85.3,153.5L85.3,153.5
		z M90.3,159.1c0,0.1,0,0.3-0.1,0.4c-0.1,0.1-0.2,0.2-0.3,0.2c-0.1,0-0.1,0-0.2,0c-0.1,0-0.1,0-0.2-0.1c0-0.1-0.1-0.2-0.1-0.2
		c0-0.1-0.1-0.2-0.1-0.2V159c0.1-0.1,0.2-0.2,0.3-0.2c0.1,0,0.2-0.1,0.3-0.1c0.1,0,0.2,0,0.2,0c0.1,0,0.1,0.1,0.2,0.1L90.3,159.1
		L90.3,159.1z M86.2,156.6c-0.1,0.1-0.1,0.1-0.1,0.2c0,0-0.1,0.1-0.1,0.2c-0.1,0-0.2,0.1-0.2,0.1c-0.1,0-0.1,0.1-0.2,0.1
		c-0.2,0-0.4-0.1-0.6-0.3c0.1-0.1,0.1-0.2,0.1-0.3c0-0.1,0.1-0.2,0.2-0.3c0.1,0,0.1,0,0.2,0c0,0,0.1,0,0.2,0c0,0,0.1,0,0.1,0
		c0,0,0.1,0,0.1,0h0.1c0,0,0,0.1,0.1,0.1c0,0,0,0.1,0,0.1c0,0,0,0,0,0.1c0,0,0.1,0.1,0.1,0.1S86.2,156.5,86.2,156.6L86.2,156.6z
		 M88,158.6c0,0.1-0.1,0.2-0.2,0.3c-0.1,0.1-0.3,0.2-0.4,0.2h-0.1l-0.3-0.3c0-0.1,0-0.1,0-0.2s0-0.1,0-0.2c0.1,0,0.2-0.1,0.2-0.1
		c0.1,0,0.2-0.1,0.3-0.1c0.1,0,0.2,0,0.2,0.1c0.1,0,0.1,0.1,0.2,0.1c0,0,0,0.1,0,0.1C88,158.5,88,158.6,88,158.6L88,158.6z
		 M125.1,149.2c0,0.1,0,0.1,0,0.2c0,0.1-0.1,0.1-0.1,0.2c-0.1,0-0.1,0.1-0.2,0.1c0,0-0.1,0.1-0.2,0.1c-0.1,0-0.3-0.1-0.4-0.1
		c-0.1,0-0.2-0.2-0.2-0.3c0-0.1,0-0.1,0-0.2c0,0,0-0.1,0-0.2c0.1-0.1,0.2-0.1,0.2-0.2c0.1,0,0.2-0.1,0.3-0.1c0.1,0,0.2,0,0.2,0
		c0.1,0,0.2,0,0.2,0c0,0.1,0,0.1,0,0.2C125.1,149,125.1,149.1,125.1,149.2L125.1,149.2z M123.3,149.2c0,0.2-0.1,0.3-0.2,0.4
		c-0.1,0.1-0.3,0.2-0.4,0.2c0,0-0.1-0.1-0.1-0.1c0,0-0.1,0-0.1,0l-0.3-0.3c0-0.1,0.1-0.1,0.1-0.2c0-0.1,0.1-0.1,0.1-0.2
		c0.2-0.1,0.3-0.1,0.5-0.1h0.2c0,0.1,0.1,0.1,0.1,0.2C123.3,149.1,123.3,149.1,123.3,149.2L123.3,149.2z M121.6,149.2
		c0,0.1-0.1,0.2-0.2,0.4c-0.1,0.1-0.2,0.2-0.4,0.2c-0.1,0-0.1,0-0.2-0.1c0,0-0.1-0.1-0.2-0.1l-0.2-0.4c0-0.1,0.1-0.2,0.1-0.3
		c0.1,0,0.1-0.1,0.2-0.1c0.1,0,0.2,0,0.2-0.1c0.1,0.1,0.2,0.1,0.3,0.2C121.5,149.1,121.5,149.1,121.6,149.2L121.6,149.2z M125,153.5
		c-0.1,0-0.1,0.1-0.2,0.1c0,0-0.1,0.1-0.2,0.1c-0.1,0-0.3-0.1-0.4-0.1c-0.1,0-0.2-0.1-0.2-0.3c0-0.1,0-0.1,0-0.2c0,0,0-0.1,0-0.2
		c0.1-0.1,0.2-0.1,0.2-0.2c0.1,0,0.2-0.1,0.3-0.1c0.1,0,0.1,0,0.1,0c0.2,0,0.3,0,0.3,0.1c0,0.1,0.1,0.1,0.1,0.2c0,0,0,0.1,0,0.2
		C125.1,153.3,125,153.4,125,153.5L125,153.5z M119.9,149.2c0,0.2-0.1,0.3-0.2,0.4c-0.1,0.1-0.3,0.1-0.5,0.1c-0.1,0-0.2,0-0.3-0.1
		c-0.1-0.1-0.2-0.2-0.2-0.3c0-0.1,0.1-0.3,0.2-0.4c0.1-0.1,0.2-0.2,0.3-0.2c0.1,0,0.2,0,0.2,0c0.1,0,0.2,0.1,0.2,0.1
		c0,0.1,0.1,0.1,0.1,0.2C119.9,149.1,119.9,149.2,119.9,149.2L119.9,149.2z M123.3,153.1c0,0.1-0.1,0.3-0.2,0.4
		c-0.1,0.1-0.2,0.1-0.4,0.1c-0.1,0-0.1,0-0.2,0c0,0-0.1,0-0.2,0l-0.3-0.3c0-0.1,0.1-0.1,0.1-0.2c0-0.1,0.1-0.1,0.1-0.2
		c0.2-0.1,0.3-0.1,0.5-0.1h0.2c0,0.1,0.1,0.1,0.1,0.2C123.3,152.9,123.3,153,123.3,153.1L123.3,153.1z M118.1,149.2
		c0,0.1,0,0.2,0,0.2c0,0-0.1,0.1-0.1,0.2c-0.1,0-0.1,0.1-0.1,0.1c0,0-0.1,0.1-0.2,0.1c-0.1,0-0.3-0.1-0.4-0.1
		c-0.1-0.1-0.2-0.2-0.2-0.3c0-0.1,0-0.1,0-0.2s0-0.1,0-0.2c0.2-0.2,0.3-0.2,0.5-0.2c0.1,0,0.2,0,0.2,0c0.1,0,0.2,0,0.2,0
		c0,0.1,0,0.1,0,0.2C118.1,149.1,118.1,149.1,118.1,149.2L118.1,149.2z M121.6,153.1c0,0.1-0.1,0.2-0.1,0.2c0,0-0.1,0.1-0.1,0.1
		c0,0-0.1,0-0.1,0c0,0-0.1,0.1-0.1,0.1c-0.1,0-0.1,0-0.2,0c-0.1,0-0.1,0-0.2-0.1c-0.1,0-0.1-0.1-0.2-0.1l-0.2-0.4
		c0-0.1,0.1-0.2,0.1-0.3c0-0.1,0-0.1,0.1-0.1c0.1,0,0.2,0,0.2,0c0,0,0.1,0,0.1-0.1c0.1,0.1,0.2,0.1,0.3,0.2
		C121.5,152.9,121.5,153,121.6,153.1L121.6,153.1z M119.9,153.1c0,0.1,0,0.2-0.1,0.2c0,0.1-0.1,0.1-0.2,0.2c-0.1,0-0.1,0.1-0.2,0.1
		c-0.1,0-0.1,0-0.2,0c-0.1,0-0.2,0-0.3-0.1c-0.1-0.1-0.2-0.2-0.2-0.3c0-0.1,0-0.2,0-0.2c0,0,0.1-0.1,0.1-0.2c0,0,0.1-0.1,0.2-0.1
		c0.1,0,0.1-0.1,0.2-0.1c0.1,0,0.2,0,0.2,0c0.1,0,0.2,0.1,0.2,0.1c0,0.1,0.1,0.1,0.1,0.2C119.9,153,119.9,153,119.9,153.1
		L119.9,153.1z M118.2,153c0,0.1,0,0.2-0.1,0.2c0,0.1-0.1,0.1-0.1,0.2c-0.1,0-0.1,0.1-0.2,0.1c0,0-0.1,0.1-0.2,0.1
		c-0.1,0-0.2-0.1-0.4-0.1c-0.2-0.1-0.2-0.2-0.2-0.3c0-0.1,0-0.1,0-0.2c0,0,0-0.1,0-0.2c0.1-0.2,0.3-0.2,0.5-0.2c0.1,0,0.1,0,0.1,0
		c0.1,0,0.1,0,0.2,0.1c0,0.1,0.1,0.1,0.1,0c0,0,0,0.1,0.1,0.1C118.1,153,118.2,153,118.2,153L118.2,153z"/>
	<g id="_293645152288">
		<polygon class="st1" points="0.2,134.1 298.9,134.1 298.9,134.6 0.2,134.6 		"/>
		<polygon class="st1" points="34.4,0.2 34.4,168.3 33.9,168.3 33.9,0.2 		"/>
		<polygon class="st1" points="0.2,100.9 298.9,100.9 298.9,101.4 0.2,101.4 		"/>
		<polygon class="st1" points="0.2,67.3 298.9,67.3 298.9,67.8 0.2,67.8 		"/>
		<polygon class="st1" points="0.2,33.7 298.9,33.7 298.9,34.2 0.2,34.2 		"/>
		<polygon class="st1" points="68,0.2 68,168.3 67.5,168.3 67.5,0.2 		"/>
		<polygon class="st1" points="101.6,0.2 101.6,168.3 101.1,168.3 101.1,0.2 		"/>
		<polygon class="st1" points="135.2,0.2 135.2,168.3 134.7,168.3 134.7,0.2 		"/>
		<polygon class="st1" points="168.8,0.2 168.8,168.3 168.3,168.3 168.3,0.2 		"/>
		<polygon class="st1" points="202.4,0.2 202.4,168.3 201.9,168.3 201.9,0.2 		"/>
		<polygon class="st1" points="236,0.2 236,168.3 235.5,168.3 235.5,0.2 		"/>
		<polygon class="st1" points="269.5,0.2 269.5,168.3 269,168.3 269,0.2 		"/>
		<path class="st2" d="M0,168.3V0h299.2v168.5H0V168.3z M0.5,0.5V168h298.2V0.5H0.5L0.5,0.5z"/>
	</g>
</g>
</svg>
